<?xml version="1.0" encoding="UTF-8" standalone="no"?>
<!DOCTYPE svg PUBLIC "-//W3C//DTD SVG 1.1//EN" "http://www.w3.org/Graphics/SVG/1.1/DTD/svg11.dtd">
<svg width="100%" height="100%" viewBox="0 0 1223 885" version="1.1" xmlns="http://www.w3.org/2000/svg" xmlns:xlink="http://www.w3.org/1999/xlink" xml:space="preserve" xmlns:serif="http://www.serif.com/" style="fill-rule:evenodd;clip-rule:evenodd;stroke-miterlimit:10;">
    <g transform="matrix(0.416667,0,0,0.416667,223.005,-823.998)">
        <rect x="1104.45" y="3528.14" width="1269.46" height="260.688" style="fill:rgb(241,242,242);"/>
    </g>
    <g transform="matrix(4.16667,0,0,4.16667,-117.118,-443.012)">
        <text x="144.236px" y="111.551px" style="font-family:'ArialMT', 'Arial', sans-serif;font-size:7.177px;fill:rgb(35,31,32);">Donor</text>
    </g>
    <g transform="matrix(4.16667,0,0,4.16667,-117.118,-443.012)">
        <text x="117.882px" y="111.551px" style="font-family:'ArialMT', 'Arial', sans-serif;font-size:7.177px;fill:rgb(35,31,32);">Pre</text>
    </g>
    <g transform="matrix(4.16667,0,0,4.16667,-117.118,-443.012)">
        <text x="177.489px" y="111.55px" style="font-family:'ArialMT', 'Arial', sans-serif;font-size:7.177px;fill:rgb(35,31,32);">Post</text>
    </g>
    <g transform="matrix(4.16667,0,0,4.16667,-117.118,-443.012)">
        <text x="209.76px" y="111.551px" style="font-family:'ArialMT', 'Arial', sans-serif;font-size:7.177px;fill:rgb(35,31,32);">Outcome</text>
    </g>
    <g transform="matrix(0.416667,0,0,0.416667,-422.354,-1646.35)">
        <rect x="1104.45" y="5228.61" width="1269.45" height="260.691" style="fill:white;"/>
    </g>
    <g transform="matrix(0.416667,0,0,0.416667,-422.354,-1429.1)">
        <rect x="1104.45" y="4967.9" width="1269.45" height="260.703" style="fill:rgb(241,242,242);"/>
    </g>
    <g transform="matrix(0.416667,0,0,0.416667,-422.354,-1754.97)">
        <path d="M1104.45,5489.3L2373.9,5489.3" style="fill:none;stroke:rgb(35,31,32);stroke-width:4.95px;"/>
    </g>
    <g transform="matrix(0.416667,0,0,0.416667,223.005,-1423.89)">
        <rect x="1104.45" y="4248.01" width="1269.46" height="260.68" style="fill:rgb(241,242,242);"/>
    </g>
    <g transform="matrix(0.416667,0,0,0.416667,223.005,-1641.14)">
        <rect x="1104.45" y="4508.71" width="1269.45" height="260.688" style="fill:white;"/>
    </g>
    <g transform="matrix(0.416667,0,0,0.416667,223.005,-1749.76)">
        <path d="M1104.45,4769.4L2373.9,4769.4" style="fill:none;stroke:rgb(35,31,32);stroke-width:4.95px;"/>
    </g>
    <g transform="matrix(0.416667,0,0,0.416667,-422.354,-2246.24)">
        <rect x="1104.45" y="5948.48" width="1269.46" height="260.699" style="fill:white;"/>
    </g>
    <g transform="matrix(0.416667,0,0,0.416667,-422.354,-2029)">
        <rect x="1104.45" y="5687.79" width="1269.46" height="260.691" style="fill:rgb(241,242,242);"/>
    </g>
    <g transform="matrix(0.416667,0,0,0.416667,-117.118,-2628.89)">
        <rect x="1104.45" y="6407.66" width="1269.46" height="260.699" style="fill:rgb(241,242,242);"/>
    </g>
    <g transform="matrix(0.416667,0,0,0.416667,-422.354,-2246.26)">
        <path d="M2328.59,6078.85C2328.59,6125.81 2290.54,6163.86 2243.59,6163.86C2196.65,6163.86 2158.58,6125.81 2158.58,6078.85C2158.58,6031.9 2196.65,5993.84 2243.59,5993.84C2290.54,5993.84 2328.59,6031.9 2328.59,6078.85" style="fill:white;fill-rule:nonzero;"/>
    </g>
    <g transform="matrix(0,-0.416667,-0.416667,-0,3045.33,1221.42)">
        <ellipse cx="2243.59" cy="6078.85" rx="85.01" ry="85.005" style="fill:none;stroke:rgb(35,31,32);stroke-width:4.95px;"/>
    </g>
    <g transform="matrix(0.416667,0,0,0.416667,-422.354,-2029)">
        <path d="M2328.59,5818.14C2328.59,5865.09 2290.54,5903.15 2243.59,5903.15C2196.65,5903.15 2158.58,5865.09 2158.58,5818.14C2158.58,5771.19 2196.65,5733.13 2243.59,5733.13C2290.54,5733.13 2328.59,5771.19 2328.59,5818.14" style="fill:white;fill-rule:nonzero;"/>
    </g>
    <g transform="matrix(0,-0.416667,-0.416667,-0,2936.7,1330.05)">
        <ellipse cx="2243.59" cy="5818.14" rx="85.01" ry="85.005" style="fill:none;stroke:rgb(35,31,32);stroke-width:4.95px;"/>
    </g>
    <g transform="matrix(0.416667,0,0,0.416667,-422.354,-1646.35)">
        <path d="M2328.59,5358.95C2328.59,5405.9 2290.54,5443.97 2243.59,5443.97C2196.65,5443.97 2158.58,5405.9 2158.58,5358.95C2158.58,5312.01 2196.65,5273.94 2243.59,5273.94C2290.54,5273.94 2328.59,5312.01 2328.59,5358.95" style="fill:rgb(35,31,32);fill-rule:nonzero;"/>
    </g>
    <g transform="matrix(0,-0.416667,-0.416667,-0,2745.37,1521.38)">
        <ellipse cx="2243.59" cy="5358.95" rx="85.015" ry="85.005" style="fill:none;stroke:rgb(35,31,32);stroke-width:4.95px;"/>
    </g>
    <g transform="matrix(0.416667,0,0,0.416667,-422.354,-1429.1)">
        <path d="M2328.59,5098.26C2328.59,5145.19 2290.54,5183.26 2243.59,5183.26C2196.65,5183.26 2158.58,5145.19 2158.58,5098.26C2158.58,5051.32 2196.65,5013.24 2243.59,5013.24C2290.54,5013.24 2328.59,5051.32 2328.59,5098.26" style="fill:rgb(35,31,32);fill-rule:nonzero;"/>
    </g>
    <g transform="matrix(0,-0.416667,-0.416667,-0,2636.74,1630)">
        <ellipse cx="2243.59" cy="5098.25" rx="85.01" ry="85.005" style="fill:none;stroke:rgb(35,31,32);stroke-width:4.95px;"/>
    </g>
    <g transform="matrix(0.416667,0,0,0.416667,-117.118,-2628.89)">
        <path d="M1234.82,6623.02C1281.78,6623.02 1319.84,6584.95 1319.84,6538C1319.84,6491.06 1281.78,6452.99 1234.82,6452.99C1187.88,6452.99 1149.82,6491.06 1149.82,6538C1149.82,6584.95 1187.88,6623.02 1234.82,6623.02" style="fill:rgb(19,117,188);fill-rule:nonzero;"/>
    </g>
    <g transform="matrix(0.416667,0,0,0.416667,-117.118,-2628.89)">
        <path d="M1234.82,6623.02C1281.78,6623.02 1319.84,6584.95 1319.84,6538C1319.84,6491.06 1281.78,6452.99 1234.82,6452.99C1187.88,6452.99 1149.82,6491.06 1149.82,6538C1149.82,6584.95 1187.88,6623.02 1234.82,6623.02Z" style="fill:none;stroke:rgb(35,31,32);stroke-width:4.95px;"/>
    </g>
    <g transform="matrix(0.416667,0,0,0.416667,-117.118,-2628.89)">
        <path d="M1540.85,6623.02C1587.81,6623.02 1625.87,6584.95 1625.87,6538C1625.87,6491.06 1587.81,6452.99 1540.85,6452.99C1493.91,6452.99 1455.85,6491.06 1455.85,6538C1455.85,6584.95 1493.91,6623.02 1540.85,6623.02" style="fill:rgb(248,237,47);fill-rule:nonzero;"/>
    </g>
    <g transform="matrix(0.416667,0,0,0.416667,-117.118,-2628.89)">
        <path d="M1540.85,6623.02C1587.81,6623.02 1625.87,6584.95 1625.87,6538C1625.87,6491.06 1587.81,6452.99 1540.85,6452.99C1493.91,6452.99 1455.85,6491.06 1455.85,6538C1455.85,6584.95 1493.91,6623.02 1540.85,6623.02Z" style="fill:none;stroke:rgb(35,31,32);stroke-width:4.95px;"/>
    </g>
    <g transform="matrix(0.416667,0,0,0.416667,-117.118,-2639.27)">
        <path d="M1931.91,6562.91L1931.91,6562.9C1931.91,6515.96 1893.84,6477.9 1846.89,6477.9C1799.95,6477.9 1761.88,6515.96 1761.88,6562.9C1761.88,6586.38 1771.4,6607.63 1786.78,6623.02L1846.9,6562.91L1931.91,6562.91Z" style="fill:rgb(19,117,188);fill-rule:nonzero;stroke:rgb(35,31,32);stroke-width:4.95px;"/>
    </g>
    <g transform="matrix(0.416667,0,0,0.416667,-117.118,-2593.47)">
        <path d="M1846.9,6453L1786.78,6513.11C1802.17,6528.5 1823.43,6538.01 1846.89,6538.01C1893.85,6538.01 1931.91,6499.95 1931.91,6453L1846.9,6453Z" style="fill:rgb(248,237,47);fill-rule:nonzero;stroke:rgb(35,31,32);stroke-width:4.95px;"/>
    </g>
    <g transform="matrix(0.416667,0,0,0.416667,-117.118,-2639.27)">
        <path d="M2328.59,6562.91L2328.59,6562.9C2328.59,6515.96 2290.52,6477.9 2243.58,6477.9C2196.65,6477.9 2158.58,6515.96 2158.58,6562.9C2158.58,6586.38 2168.09,6607.63 2183.46,6623.02L2243.59,6562.91L2328.59,6562.91Z" style="fill:white;fill-rule:nonzero;stroke:rgb(35,31,32);stroke-width:4.95px;"/>
    </g>
    <g transform="matrix(0.416667,0,0,0.416667,-117.118,-2593.47)">
        <path d="M2243.6,6453L2183.47,6513.11C2198.86,6528.5 2220.12,6538.01 2243.59,6538.01C2290.53,6538.01 2328.6,6499.95 2328.6,6453L2243.6,6453Z" style="fill:rgb(35,31,32);fill-rule:nonzero;stroke:rgb(35,31,32);stroke-width:4.95px;"/>
    </g>
    <g transform="matrix(0.416667,0,0,0.416667,-422.354,-2246.24)">
        <path d="M1540.85,6163.83C1587.8,6163.83 1625.86,6125.77 1625.86,6078.82C1625.86,6031.88 1587.8,5993.82 1540.85,5993.82C1493.89,5993.82 1455.83,6031.88 1455.83,6078.82C1455.83,6125.77 1493.89,6163.83 1540.85,6163.83" style="fill:white;fill-rule:nonzero;"/>
    </g>
    <g transform="matrix(0.416667,0,0,0.416667,-422.354,-2246.24)">
        <path d="M1540.85,6163.83C1587.8,6163.83 1625.86,6125.77 1625.86,6078.82C1625.86,6031.88 1587.8,5993.82 1540.85,5993.82C1493.89,5993.82 1455.83,6031.88 1455.83,6078.82C1455.83,6125.77 1493.89,6163.83 1540.85,6163.83Z" style="fill:none;stroke:rgb(35,31,32);stroke-width:4.95px;"/>
    </g>
    <g transform="matrix(0.416667,0,0,0.416667,-422.354,-2210.82)">
        <path d="M1846.93,6078.83L1846.71,6078.83L1846.86,5993.82L1846.93,6078.83Z" style="fill:rgb(30,120,181);fill-rule:nonzero;stroke:rgb(35,31,32);stroke-width:2.48px;"/>
    </g>
    <g transform="matrix(0.416667,0,0,0.416667,-422.354,-2210.82)">
        <path d="M1846.7,6078.83L1845.45,6078.8L1844.19,6078.79L1846.85,5993.82L1846.7,6078.83Z" style="fill:rgb(237,28,36);fill-rule:nonzero;stroke:rgb(35,31,32);stroke-width:2.48px;"/>
    </g>
    <g transform="matrix(0.416667,0,0,0.416667,-422.354,-2246.47)">
        <path d="M1844.2,6164.33C1833.8,6164 1823.53,6161.77 1813.94,6157.73C1804.34,6153.69 1795.56,6147.93 1788.04,6140.72C1780.52,6133.51 1774.4,6125 1769.97,6115.56C1765.53,6106.15 1762.87,6095.98 1762.1,6085.6C1761.33,6075.22 1762.47,6064.79 1765.48,6054.82C1768.49,6044.86 1773.31,6035.52 1779.67,6027.29C1786.04,6019.06 1793.89,6012.08 1802.8,6006.66C1811.69,6001.27 1821.51,5997.55 1831.76,5995.69C1842.01,5993.86 1852.51,5993.9 1862.73,5995.84C1872.96,5997.79 1882.76,6001.59 1891.59,6007.07C1900.45,6012.54 1908.23,6019.59 1914.53,6027.88C1920.84,6036.19 1925.56,6045.56 1928.48,6055.54C1931.41,6065.54 1932.46,6075.98 1931.59,6086.36C1930.74,6096.74 1927.98,6106.87 1923.47,6116.25C1918.94,6125.63 1912.72,6134.1 1905.16,6141.24C1897.59,6148.38 1888.76,6154.07 1879.12,6158.01L1846.86,6079.35L1844.2,6164.33Z" style="fill:rgb(45,162,72);fill-rule:nonzero;stroke:rgb(35,31,32);stroke-width:2.48px;"/>
    </g>
    <g transform="matrix(0.416667,0,0,0.416667,-422.354,-2212.73)">
        <path d="M1879.09,6077.05L1876.74,6077.99L1874.33,6078.83L1846.86,5998.39L1879.09,6077.05Z" style="fill:rgb(146,104,172);fill-rule:nonzero;stroke:rgb(35,31,32);stroke-width:2.48px;"/>
    </g>
    <g transform="matrix(0.416667,0,0,0.416667,-422.354,-2211.34)">
        <path d="M1874.33,6075.5C1872.21,6076.23 1870.08,6076.87 1867.91,6077.43C1865.73,6077.99 1863.55,6078.46 1861.32,6078.83L1846.85,5995.06L1874.33,6075.5Z" style="fill:rgb(140,87,76);fill-rule:nonzero;stroke:rgb(35,31,32);stroke-width:2.48px;"/>
    </g>
    <g transform="matrix(0.416667,0,0,0.416667,-422.354,-2210.83)">
        <path d="M1861.33,6077.59C1858.95,6078 1856.56,6078.33 1854.16,6078.53C1851.76,6078.73 1849.36,6078.84 1846.93,6078.84L1846.86,5993.82L1861.33,6077.59Z" style="fill:rgb(215,122,178);fill-rule:nonzero;stroke:rgb(35,31,32);stroke-width:2.48px;"/>
    </g>
    <g transform="matrix(0.416667,0,0,0.416667,-422.354,-2246.25)">
        <path d="M1846.87,6163.84C1893.83,6163.84 1931.88,6125.78 1931.88,6078.83C1931.88,6031.88 1893.83,5993.82 1846.87,5993.82C1799.91,5993.82 1761.86,6031.88 1761.86,6078.83C1761.86,6125.78 1799.91,6163.84 1846.87,6163.84Z" style="fill:none;stroke:rgb(35,31,32);stroke-width:4.95px;"/>
    </g>
    <g transform="matrix(0.416667,0,0,0.416667,-422.354,-2249.65)">
        <path d="M1319.42,6078.83C1319.51,6079.8 1319.6,6080.77 1319.65,6081.73C1319.71,6082.7 1319.74,6083.68 1319.78,6084.63L1234.8,6086.99L1319.42,6078.83Z" style="fill:rgb(146,104,172);fill-rule:nonzero;stroke:rgb(35,31,32);stroke-width:2.48px;"/>
    </g>
    <g transform="matrix(0.416667,0,0,0.416667,-422.354,-2210.82)">
        <path d="M1234.44,6078.82L1234.81,5993.82L1234.44,6078.82Z" style="fill:rgb(30,120,181);fill-rule:nonzero;stroke:rgb(35,31,32);stroke-width:2.48px;"/>
    </g>
    <g transform="matrix(0.416667,0,0,0.416667,-422.354,-2210.82)">
        <path d="M1234.44,6078.82L1234.81,5993.82L1234.44,6078.82Z" style="fill:rgb(237,28,36);fill-rule:nonzero;stroke:rgb(35,31,32);stroke-width:2.48px;"/>
    </g>
    <g transform="matrix(0.416667,0,0,0.416667,-422.354,-2246.83)">
        <path d="M1234.44,6165.24C1217.99,6165.17 1201.9,6160.34 1188.15,6151.3C1174.42,6142.28 1163.58,6129.46 1156.97,6114.39C1150.35,6099.33 1148.25,6082.66 1150.94,6066.44C1153.6,6050.2 1160.93,6035.1 1172,6022.95C1183.07,6010.79 1197.47,6002.12 1213.39,5997.97C1229.31,5993.82 1246.07,5994.38 1261.67,5999.57C1277.28,6004.78 1291.04,6014.4 1301.31,6027.26C1311.54,6040.13 1317.85,6055.69 1319.43,6072.07L1234.81,6080.24L1234.44,6165.24Z" style="fill:rgb(45,162,72);fill-rule:nonzero;stroke:rgb(35,31,32);stroke-width:2.48px;"/>
    </g>
    <g transform="matrix(0.416667,0,0,0.416667,-422.354,-2234.37)">
        <path d="M1319.78,6047.99C1319.94,6053.65 1319.53,6059.31 1318.56,6064.88C1317.61,6070.45 1316.08,6075.91 1314.03,6081.18L1234.8,6050.35L1319.78,6047.99Z" style="fill:rgb(140,87,76);fill-rule:nonzero;stroke:rgb(35,31,32);stroke-width:2.48px;"/>
    </g>
    <g transform="matrix(0.416667,0,0,0.416667,-422.354,-2210.79)">
        <path d="M1314.03,6024.57C1307.8,6040.58 1296.85,6054.33 1282.65,6064.01C1268.44,6073.68 1251.64,6078.82 1234.44,6078.74L1234.81,5993.74L1314.03,6024.57Z" style="fill:rgb(215,122,178);fill-rule:nonzero;stroke:rgb(35,31,32);stroke-width:2.48px;"/>
    </g>
    <g transform="matrix(0.416667,0,0,0.416667,-422.354,-2246.25)">
        <path d="M1234.81,6163.84C1281.77,6163.84 1319.82,6125.78 1319.82,6078.83C1319.82,6031.88 1281.77,5993.82 1234.81,5993.82C1187.86,5993.82 1149.8,6031.88 1149.8,6078.83C1149.8,6125.78 1187.86,6163.84 1234.81,6163.84Z" style="fill:none;stroke:rgb(35,31,32);stroke-width:4.95px;"/>
    </g>
    <g transform="matrix(0.416667,0,0,0.416667,-422.354,-2008.11)">
        <path d="M1307.83,5811.55C1307.16,5812.67 1306.48,5813.79 1305.75,5814.89C1305.02,5815.96 1304.27,5817.04 1303.51,5818.11L1234.81,5768.03L1307.83,5811.55Z" style="fill:rgb(30,120,181);fill-rule:nonzero;stroke:rgb(35,31,32);stroke-width:2.48px;"/>
    </g>
    <g transform="matrix(0.416667,0,0,0.416667,-422.354,-2011.55)">
        <path d="M1308.89,5817.96L1308.84,5818.03L1308.8,5818.11L1234.8,5776.27L1308.89,5817.96Z" style="fill:rgb(146,104,172);fill-rule:nonzero;stroke:rgb(35,31,32);stroke-width:2.48px;"/>
    </g>
    <g transform="matrix(0.416667,0,0,0.416667,-422.354,-2010.93)">
        <path d="M1308.8,5816.63L1308.38,5817.38L1307.94,5818.12L1234.8,5774.79L1308.8,5816.63Z" style="fill:rgb(140,87,76);fill-rule:nonzero;stroke:rgb(35,31,32);stroke-width:2.48px;"/>
    </g>
    <g transform="matrix(0.416667,0,0,0.416667,-422.354,-2010.85)">
        <path d="M1307.94,5817.93L1307.89,5818.03L1307.82,5818.12L1234.8,5774.6L1307.94,5817.93Z" style="fill:rgb(215,122,178);fill-rule:nonzero;stroke:rgb(35,31,32);stroke-width:2.48px;"/>
    </g>
    <g transform="matrix(0.416667,0,0,0.416667,-422.354,-2029)">
        <path d="M1540.85,5903.14C1587.81,5903.14 1625.87,5865.08 1625.87,5818.13C1625.87,5771.18 1587.81,5733.12 1540.85,5733.12C1493.9,5733.12 1455.84,5771.18 1455.84,5818.13C1455.84,5865.08 1493.9,5903.14 1540.85,5903.14" style="fill:white;fill-rule:nonzero;"/>
    </g>
    <g transform="matrix(0.416667,0,0,0.416667,-422.354,-2029)">
        <path d="M1540.85,5903.14C1587.81,5903.14 1625.87,5865.08 1625.87,5818.13C1625.87,5771.18 1587.81,5733.12 1540.85,5733.12C1493.9,5733.12 1455.84,5771.18 1455.84,5818.13C1455.84,5865.08 1493.9,5903.14 1540.85,5903.14Z" style="fill:none;stroke:rgb(35,31,32);stroke-width:4.95px;"/>
    </g>
    <g transform="matrix(0.416667,0,0,0.416667,-422.354,-2001.23)">
        <path d="M1901.99,5816.24L1900.87,5817.19L1899.73,5818.11L1846.88,5751.52L1901.99,5816.24Z" style="fill:rgb(30,120,181);fill-rule:nonzero;stroke:rgb(35,31,32);stroke-width:2.48px;"/>
    </g>
    <g transform="matrix(0.416667,0,0,0.416667,-422.354,-1993.62)">
        <path d="M1899.72,5799.84C1892.88,5805.28 1885.22,5809.62 1877.04,5812.72C1868.87,5815.83 1860.26,5817.64 1851.52,5818.12L1846.87,5733.25L1899.72,5799.84Z" style="fill:rgb(237,28,36);fill-rule:nonzero;stroke:rgb(35,31,32);stroke-width:2.48px;"/>
    </g>
    <g transform="matrix(0.416667,0,0,0.416667,-422.354,-1993.57)">
        <path d="M1851.52,5817.98C1850.56,5818.05 1849.61,5818.09 1848.63,5818.09C1847.67,5818.11 1846.69,5818.12 1845.72,5818.1L1846.88,5733.11L1851.52,5817.98Z" style="fill:rgb(45,162,72);fill-rule:nonzero;stroke:rgb(35,31,32);stroke-width:2.48px;"/>
    </g>
    <g transform="matrix(0.416667,0,0,0.416667,-422.354,-2002.55)">
        <path d="M1905.57,5816.16L1904.51,5817.16L1903.42,5818.12L1846.87,5754.68L1905.57,5816.16Z" style="fill:rgb(146,104,172);fill-rule:nonzero;stroke:rgb(35,31,32);stroke-width:2.48px;"/>
    </g>
    <g transform="matrix(0.416667,0,0,0.416667,-422.354,-2002.06)">
        <path d="M1903.43,5816.93L1902.77,5817.53L1902.11,5818.12L1846.88,5753.49L1903.43,5816.93Z" style="fill:rgb(140,87,76);fill-rule:nonzero;stroke:rgb(35,31,32);stroke-width:2.48px;"/>
    </g>
    <g transform="matrix(0.416667,0,0,0.416667,-422.354,-2002.02)">
        <path d="M1902.11,5818.03L1902.04,5818.06L1901.98,5818.12L1846.87,5753.4L1902.11,5818.03Z" style="fill:rgb(215,122,178);fill-rule:nonzero;stroke:rgb(35,31,32);stroke-width:2.48px;"/>
    </g>
    <g transform="matrix(0.416667,0,0,0.416667,-422.354,-2029)">
        <path d="M1846.87,5903.14C1893.83,5903.14 1931.88,5865.08 1931.88,5818.13C1931.88,5771.18 1893.83,5733.12 1846.87,5733.12C1799.91,5733.12 1761.86,5771.18 1761.86,5818.13C1761.86,5865.08 1799.91,5903.14 1846.87,5903.14Z" style="fill:none;stroke:rgb(35,31,32);stroke-width:4.95px;"/>
    </g>
    <g transform="matrix(0.416667,0,0,0.416667,-422.354,-1993.59)">
        <path d="M1303.5,5783.25C1295.97,5793.57 1286.22,5802.07 1274.97,5808.11C1263.7,5814.13 1251.23,5817.54 1238.47,5818.11L1234.8,5733.17L1303.5,5783.25Z" style="fill:rgb(237,28,36);fill-rule:nonzero;stroke:rgb(35,31,32);stroke-width:2.48px;"/>
    </g>
    <g transform="matrix(0.416667,0,0,0.416667,-422.354,-1993.57)">
        <path d="M1238.47,5818.05L1236.66,5818.1L1234.85,5818.12L1234.8,5733.11L1238.47,5818.05Z" style="fill:rgb(45,162,72);fill-rule:nonzero;stroke:rgb(35,31,32);stroke-width:2.48px;"/>
    </g>
    <g transform="matrix(0.416667,0,0,0.416667,-422.354,-2029)">
        <path d="M1234.81,5903.14C1281.77,5903.14 1319.82,5865.08 1319.82,5818.13C1319.82,5771.18 1281.77,5733.12 1234.81,5733.12C1187.86,5733.12 1149.8,5771.18 1149.8,5818.13C1149.8,5865.08 1187.86,5903.14 1234.81,5903.14Z" style="fill:none;stroke:rgb(35,31,32);stroke-width:4.95px;"/>
    </g>
    <g transform="matrix(0.416667,0,0,0.416667,-422.354,-1610.93)">
        <path d="M1619.92,5305.19C1613.66,5321 1602.82,5334.58 1588.78,5344.16C1574.74,5353.73 1558.15,5358.89 1541.15,5358.96L1540.84,5273.94L1619.92,5305.19Z" style="fill:rgb(30,120,181);fill-rule:nonzero;stroke:rgb(35,31,32);stroke-width:2.48px;"/>
    </g>
    <g transform="matrix(0.416667,0,0,0.416667,-422.354,-1640.69)">
        <path d="M1541.16,5430.38C1522.79,5430.43 1504.86,5424.54 1490.11,5413.58C1475.36,5402.6 1464.57,5387.13 1459.35,5369.49C1454.12,5351.86 1454.78,5333.02 1461.17,5315.8C1467.57,5298.55 1479.38,5283.85 1494.83,5273.89L1540.85,5345.36L1541.16,5430.38Z" style="fill:rgb(237,28,36);fill-rule:nonzero;stroke:rgb(35,31,32);stroke-width:2.48px;"/>
    </g>
    <g transform="matrix(0.416667,0,0,0.416667,-422.354,-1680.19)">
        <path d="M1494.83,5368.69C1498.07,5366.61 1501.45,5364.75 1504.92,5363.12C1508.41,5361.5 1512.01,5360.11 1515.68,5358.96L1540.85,5440.16L1494.83,5368.69Z" style="fill:rgb(45,162,72);fill-rule:nonzero;stroke:rgb(35,31,32);stroke-width:2.48px;"/>
    </g>
    <g transform="matrix(0.416667,0,0,0.416667,-422.354,-1682.07)">
        <path d="M1533.04,5360.04C1544.72,5358.96 1556.5,5360.32 1567.65,5364.02C1578.8,5367.71 1589.04,5373.67 1597.77,5381.54C1606.5,5389.4 1613.49,5398.96 1618.32,5409.67C1623.15,5420.38 1625.71,5431.95 1625.86,5443.69L1540.85,5444.68L1533.04,5360.04Z" style="fill:rgb(146,104,172);fill-rule:nonzero;stroke:rgb(35,31,32);stroke-width:2.48px;"/>
    </g>
    <g transform="matrix(0.416667,0,0,0.416667,-422.354,-1643.97)">
        <path d="M1625.86,5352.24C1625.87,5353.53 1625.86,5354.82 1625.83,5356.1C1625.77,5357.39 1625.7,5358.66 1625.6,5359.95L1540.85,5353.23L1625.86,5352.24Z" style="fill:rgb(140,87,76);fill-rule:nonzero;stroke:rgb(35,31,32);stroke-width:2.48px;"/>
    </g>
    <g transform="matrix(0.416667,0,0,0.416667,-422.354,-1633.33)">
        <path d="M1625.6,5334.43C1625.27,5338.63 1624.62,5342.81 1623.67,5346.91C1622.72,5351.01 1621.46,5355.05 1619.92,5358.96L1540.85,5327.71L1625.6,5334.43Z" style="fill:rgb(215,122,178);fill-rule:nonzero;stroke:rgb(35,31,32);stroke-width:2.48px;"/>
    </g>
    <g transform="matrix(0.416667,0,0,0.416667,-422.354,-1646.35)">
        <path d="M1540.85,5443.97C1587.81,5443.97 1625.86,5405.9 1625.86,5358.95C1625.86,5312.01 1587.81,5273.94 1540.85,5273.94C1493.9,5273.94 1455.85,5312.01 1455.85,5358.95C1455.85,5405.9 1493.9,5443.97 1540.85,5443.97Z" style="fill:none;stroke:rgb(35,31,32);stroke-width:4.95px;"/>
    </g>
    <g transform="matrix(0.416667,0,0,0.416667,-422.354,-1610.93)">
        <path d="M1900.75,5339.7C1893.25,5345.84 1884.78,5350.65 1875.66,5353.93C1866.55,5357.21 1856.94,5358.91 1847.25,5358.95L1846.87,5273.95L1900.75,5339.7Z" style="fill:rgb(30,120,181);fill-rule:nonzero;stroke:rgb(35,31,32);stroke-width:2.48px;"/>
    </g>
    <g transform="matrix(0.416667,0,0,0.416667,-422.354,-1637.01)">
        <path d="M1847.24,5421.54C1830.09,5421.6 1813.31,5416.5 1799.11,5406.86C1784.93,5397.22 1773.99,5383.52 1767.72,5367.53C1761.47,5351.56 1760.18,5334.07 1764.04,5317.36C1767.92,5300.65 1776.76,5285.5 1789.4,5273.89L1846.86,5336.54L1847.24,5421.54Z" style="fill:rgb(237,28,36);fill-rule:nonzero;stroke:rgb(35,31,32);stroke-width:2.48px;"/>
    </g>
    <g transform="matrix(0.416667,0,0,0.416667,-422.354,-1673.22)">
        <path d="M1789.41,5360.81L1790.45,5359.88L1791.51,5358.95L1846.87,5423.46L1789.41,5360.81Z" style="fill:rgb(45,162,72);fill-rule:nonzero;stroke:rgb(35,31,32);stroke-width:2.48px;"/>
    </g>
    <g transform="matrix(0.416667,0,0,0.416667,-422.354,-1662.7)">
        <path d="M1871.68,5316.88C1883.89,5320.6 1895.09,5327.02 1904.46,5335.66C1913.85,5344.29 1921.16,5354.95 1925.88,5366.78C1930.58,5378.65 1932.56,5391.39 1931.68,5404.12C1930.8,5416.84 1927.04,5429.19 1920.73,5440.27L1846.86,5398.2L1871.68,5316.88Z" style="fill:rgb(146,104,172);fill-rule:nonzero;stroke:rgb(35,31,32);stroke-width:2.48px;"/>
    </g>
    <g transform="matrix(0.416667,0,0,0.416667,-422.354,-1620.3)">
        <path d="M1920.74,5338.51C1918.57,5342.3 1916.12,5345.93 1913.41,5349.36C1910.68,5352.78 1907.7,5355.98 1904.48,5358.95L1846.87,5296.44L1920.74,5338.51Z" style="fill:rgb(140,87,76);fill-rule:nonzero;stroke:rgb(35,31,32);stroke-width:2.48px;"/>
    </g>
    <g transform="matrix(0.416667,0,0,0.416667,-422.354,-1618.95)">
        <path d="M1904.48,5355.71L1902.64,5357.36L1900.75,5358.95L1846.87,5293.2L1904.48,5355.71Z" style="fill:rgb(215,122,178);fill-rule:nonzero;stroke:rgb(35,31,32);stroke-width:2.48px;"/>
    </g>
    <g transform="matrix(0.416667,0,0,0.416667,-422.354,-1646.35)">
        <path d="M1846.87,5443.97C1893.83,5443.97 1931.88,5405.9 1931.88,5358.95C1931.88,5312.01 1893.83,5273.94 1846.87,5273.94C1799.91,5273.94 1761.86,5312.01 1761.86,5358.95C1761.86,5405.9 1799.91,5443.97 1846.87,5443.97Z" style="fill:none;stroke:rgb(35,31,32);stroke-width:4.95px;"/>
    </g>
    <g transform="matrix(0.416667,0,0,0.416667,-422.354,-1646.35)">
        <path d="M1234.8,5443.97C1281.76,5443.97 1319.82,5405.9 1319.82,5358.95C1319.82,5312.01 1281.76,5273.94 1234.8,5273.94C1187.86,5273.94 1149.8,5312.01 1149.8,5358.95C1149.8,5405.9 1187.86,5443.97 1234.8,5443.97" style="fill:white;fill-rule:nonzero;"/>
    </g>
    <g transform="matrix(0.416667,0,0,0.416667,-422.354,-1646.35)">
        <path d="M1234.8,5443.97C1281.76,5443.97 1319.82,5405.9 1319.82,5358.95C1319.82,5312.01 1281.76,5273.94 1234.8,5273.94C1187.86,5273.94 1149.8,5312.01 1149.8,5358.95C1149.8,5405.9 1187.86,5443.97 1234.8,5443.97Z" style="fill:none;stroke:rgb(35,31,32);stroke-width:4.95px;"/>
    </g>
    <g transform="matrix(0.416667,0,0,0.416667,-422.354,-1437.13)">
        <path d="M1623.65,5098.24L1623.72,5098.61L1623.8,5098.97L1540.85,5117.54L1623.65,5098.24Z" style="fill:rgb(30,120,181);fill-rule:nonzero;stroke:rgb(35,31,32);stroke-width:2.48px;"/>
    </g>
    <g transform="matrix(0.416667,0,0,0.416667,-422.354,-1436.82)">
        <path d="M1623.81,5098.24L1623.81,5098.25L1540.86,5116.81L1623.81,5098.24Z" style="fill:rgb(237,28,36);fill-rule:nonzero;stroke:rgb(35,31,32);stroke-width:2.48px;"/>
    </g>
    <g transform="matrix(0.416667,0,0,0.416667,-422.354,-1436.82)">
        <path d="M1623.81,5098.24L1623.84,5098.3L1623.84,5098.35L1540.86,5116.8L1623.81,5098.24Z" style="fill:rgb(45,162,72);fill-rule:nonzero;stroke:rgb(35,31,32);stroke-width:2.48px;"/>
    </g>
    <g transform="matrix(0.416667,0,0,0.416667,-422.354,-1400.33)">
        <path d="M1624.34,5013.24C1626.68,5025.52 1626.3,5038.15 1623.22,5050.27C1620.12,5062.38 1614.4,5073.64 1606.45,5083.3C1598.52,5092.92 1588.54,5100.71 1577.24,5106.04C1565.94,5111.39 1553.6,5114.19 1541.12,5114.22L1540.85,5029.22L1624.34,5013.24Z" style="fill:rgb(146,104,172);fill-rule:nonzero;stroke:rgb(35,31,32);stroke-width:2.48px;"/>
    </g>
    <g transform="matrix(0.416667,0,0,0.416667,-422.354,-1429.5)">
        <path d="M1541.12,5184.22C1525.76,5184.28 1510.67,5180.16 1497.47,5172.32C1484.25,5164.48 1473.43,5153.2 1466.11,5139.7C1458.8,5126.19 1455.28,5110.95 1455.93,5095.6C1456.59,5080.25 1461.39,5065.36 1469.83,5052.53C1478.25,5039.69 1490.01,5029.37 1503.85,5022.68C1517.67,5016 1533.06,5013.18 1548.34,5014.55C1563.66,5015.89 1578.31,5021.37 1590.75,5030.38C1603.17,5039.4 1612.94,5051.61 1619.01,5065.74L1540.86,5099.22L1541.12,5184.22Z" style="fill:rgb(140,87,76);fill-rule:nonzero;stroke:rgb(35,31,32);stroke-width:2.48px;"/>
    </g>
    <g transform="matrix(0.416667,0,0,0.416667,-422.354,-1443.04)">
        <path d="M1619,5098.24C1619.96,5100.52 1620.85,5102.86 1621.63,5105.22C1622.4,5107.59 1623.08,5109.98 1623.65,5112.42L1540.85,5131.72L1619,5098.24Z" style="fill:rgb(215,122,178);fill-rule:nonzero;stroke:rgb(35,31,32);stroke-width:2.48px;"/>
    </g>
    <g transform="matrix(0.416667,0,0,0.416667,-422.354,-1429.09)">
        <path d="M1540.85,5183.26C1587.81,5183.26 1625.86,5145.2 1625.86,5098.24C1625.86,5051.3 1587.81,5013.23 1540.85,5013.23C1493.9,5013.23 1455.85,5051.3 1455.85,5098.24C1455.85,5145.2 1493.9,5183.26 1540.85,5183.26Z" style="fill:none;stroke:rgb(35,31,32);stroke-width:4.95px;"/>
    </g>
    <g transform="matrix(0.416667,0,0,0.416667,-422.354,-1407.82)">
        <path d="M1914.93,5098.14L1914.89,5098.21L1914.84,5098.26L1846.88,5047.18L1914.93,5098.14Z" style="fill:rgb(30,120,181);fill-rule:nonzero;stroke:rgb(35,31,32);stroke-width:2.48px;"/>
    </g>
    <g transform="matrix(0.416667,0,0,0.416667,-422.354,-1407.01)">
        <path d="M1914.84,5096.32L1914.09,5097.28L1913.33,5098.26L1846.88,5045.24L1914.84,5096.32Z" style="fill:rgb(237,28,36);fill-rule:nonzero;stroke:rgb(35,31,32);stroke-width:2.48px;"/>
    </g>
    <g transform="matrix(0.416667,0,0,0.416667,-422.354,-1406.74)">
        <path d="M1913.33,5097.61L1913.08,5097.94L1912.8,5098.26L1846.88,5044.59L1913.33,5097.61Z" style="fill:rgb(45,162,72);fill-rule:nonzero;stroke:rgb(35,31,32);stroke-width:2.48px;"/>
    </g>
    <g transform="matrix(0.416667,0,0,0.416667,-422.354,-1393.68)">
        <path d="M1883.96,5089.76C1878.23,5092.53 1872.22,5094.63 1866.01,5096.09C1859.81,5097.52 1853.47,5098.25 1847.1,5098.26L1846.88,5013.24L1883.96,5089.76Z" style="fill:rgb(146,104,172);fill-rule:nonzero;stroke:rgb(35,31,32);stroke-width:2.48px;"/>
    </g>
    <g transform="matrix(0.416667,0,0,0.416667,-422.354,-1429.28)">
        <path d="M1847.1,5183.71C1837.91,5183.74 1828.77,5182.27 1820.05,5179.36C1811.33,5176.46 1803.13,5172.18 1795.78,5166.64C1788.43,5161.11 1782.04,5154.43 1776.83,5146.86C1771.62,5139.29 1767.68,5130.91 1765.14,5122.07C1762.62,5113.23 1761.53,5104.03 1761.96,5094.85C1762.37,5085.67 1764.27,5076.61 1767.58,5068.04C1770.91,5059.47 1775.6,5051.49 1781.46,5044.41C1787.34,5037.33 1794.31,5031.25 1802.14,5026.42C1809.95,5021.58 1818.5,5018.04 1827.46,5015.94C1836.39,5013.83 1845.64,5013.21 1854.79,5014.07C1863.95,5014.92 1872.89,5017.26 1881.31,5020.97C1889.71,5024.7 1897.46,5029.75 1904.24,5035.96C1911.03,5042.16 1916.77,5049.45 1921.22,5057.48C1925.68,5065.52 1928.81,5074.22 1930.48,5083.25C1932.15,5092.29 1932.33,5101.56 1931.05,5110.67C1929.73,5119.77 1926.98,5128.6 1922.85,5136.81L1846.88,5098.69L1847.1,5183.71Z" style="fill:rgb(140,87,76);fill-rule:nonzero;stroke:rgb(35,31,32);stroke-width:2.48px;"/>
    </g>
    <g transform="matrix(0.416667,0,0,0.416667,-422.354,-1407.87)">
        <path d="M1922.85,5085.42C1921.74,5087.67 1920.51,5089.88 1919.2,5092.02C1917.85,5094.16 1916.43,5096.24 1914.93,5098.26L1846.88,5047.3L1922.85,5085.42Z" style="fill:rgb(215,122,178);fill-rule:nonzero;stroke:rgb(35,31,32);stroke-width:2.48px;"/>
    </g>
    <g transform="matrix(0.416667,0,0,0.416667,-422.354,-1429.09)">
        <path d="M1846.87,5183.26C1893.83,5183.26 1931.88,5145.2 1931.88,5098.24C1931.88,5051.3 1893.83,5013.23 1846.87,5013.23C1799.91,5013.23 1761.86,5051.3 1761.86,5098.24C1761.86,5145.2 1799.91,5183.26 1846.87,5183.26Z" style="fill:none;stroke:rgb(35,31,32);stroke-width:4.95px;"/>
    </g>
    <g transform="matrix(0.416667,0,0,0.416667,-422.354,-1429.09)">
        <path d="M1234.81,5183.26C1281.77,5183.26 1319.82,5145.2 1319.82,5098.24C1319.82,5051.3 1281.77,5013.23 1234.81,5013.23C1187.86,5013.23 1149.8,5051.3 1149.8,5098.24C1149.8,5145.2 1187.86,5183.26 1234.81,5183.26" style="fill:white;fill-rule:nonzero;"/>
    </g>
    <g transform="matrix(0.416667,0,0,0.416667,-422.354,-1429.09)">
        <path d="M1234.81,5183.26C1281.77,5183.26 1319.82,5145.2 1319.82,5098.24C1319.82,5051.3 1281.77,5013.23 1234.81,5013.23C1187.86,5013.23 1149.8,5051.3 1149.8,5098.24C1149.8,5145.2 1187.86,5183.26 1234.81,5183.26Z" style="fill:none;stroke:rgb(35,31,32);stroke-width:4.95px;"/>
    </g>
    <g transform="matrix(0.416667,0,0,0.416667,223.005,-1422.67)">
        <path d="M1625.83,4378.34L1625.83,4378.35L1540.85,4375.44L1625.83,4378.34Z" style="fill:rgb(30,120,181);fill-rule:nonzero;stroke:rgb(35,31,32);stroke-width:2.48px;"/>
    </g>
    <g transform="matrix(0.416667,0,0,0.416667,223.005,-1422.67)">
        <path d="M1625.83,4378.35L1540.85,4375.44L1625.83,4378.35Z" style="fill:rgb(237,28,36);fill-rule:nonzero;stroke:rgb(35,31,32);stroke-width:2.48px;"/>
    </g>
    <g transform="matrix(0.416667,0,0,0.416667,223.005,-1388.49)">
        <path d="M1625.83,4296.32C1625.09,4317.78 1616.26,4338.19 1601.11,4353.39C1585.95,4368.61 1565.59,4377.52 1544.15,4378.35L1540.85,4293.41L1625.83,4296.32Z" style="fill:rgb(45,162,72);fill-rule:nonzero;stroke:rgb(35,31,32);stroke-width:2.48px;"/>
    </g>
    <g transform="matrix(0.416667,0,0,0.416667,223.005,-1388.48)">
        <path d="M1543.71,4378.35L1543.25,4378.35L1540.86,4293.38L1543.71,4378.35Z" style="fill:rgb(146,104,172);fill-rule:nonzero;stroke:rgb(35,31,32);stroke-width:2.48px;"/>
    </g>
    <g transform="matrix(0.416667,0,0,0.416667,223.005,-1388.47)">
        <path d="M1543.25,4378.33L1543.02,4378.33L1542.78,4378.35L1540.86,4293.36L1543.25,4378.33Z" style="fill:rgb(140,87,76);fill-rule:nonzero;stroke:rgb(35,31,32);stroke-width:2.48px;"/>
    </g>
    <g transform="matrix(0.416667,0,0,0.416667,223.005,-1388.47)">
        <path d="M1542.78,4378.34L1542.17,4378.35L1541.6,4378.35L1540.86,4293.35L1542.78,4378.34Z" style="fill:rgb(215,122,178);fill-rule:nonzero;stroke:rgb(35,31,32);stroke-width:2.48px;"/>
    </g>
    <g transform="matrix(0.416667,0,0,0.416667,223.005,-1388.46)">
        <path d="M1541.6,4378.33L1541.37,4378.33L1541.15,4378.35L1540.86,4293.33L1541.6,4378.33Z" style="fill:rgb(188,190,50);fill-rule:nonzero;stroke:rgb(35,31,32);stroke-width:2.48px;"/>
    </g>
    <g transform="matrix(0.416667,0,0,0.416667,223.005,-1424.04)">
        <path d="M1541.15,4463.73C1532.71,4463.75 1524.34,4462.53 1516.27,4460.08C1508.2,4457.66 1500.55,4454.03 1493.55,4449.35C1486.54,4444.65 1480.28,4438.94 1474.96,4432.39C1469.64,4425.87 1465.32,4418.57 1462.13,4410.78C1458.96,4402.97 1456.95,4394.72 1456.2,4386.34C1455.43,4377.95 1455.92,4369.5 1457.67,4361.24C1459.41,4352.99 1462.35,4345.05 1466.43,4337.66C1470.5,4330.29 1475.63,4323.55 1481.68,4317.67C1487.73,4311.81 1494.63,4306.88 1502.13,4303.05C1509.61,4299.2 1517.67,4296.5 1525.95,4295.02C1534.25,4293.54 1542.72,4293.31 1551.08,4294.32C1559.45,4295.32 1567.62,4297.58 1575.32,4300.98C1583.02,4304.41 1590.19,4308.95 1596.55,4314.49C1602.92,4320 1608.43,4326.44 1612.9,4333.58C1617.38,4340.72 1620.76,4348.48 1622.94,4356.63C1625.15,4364.76 1626.11,4373.18 1625.84,4381.61L1540.86,4378.71L1541.15,4463.73Z" style="fill:rgb(247,147,29);fill-rule:nonzero;stroke:rgb(35,31,32);stroke-width:2.48px;"/>
    </g>
    <g transform="matrix(0.416667,0,0,0.416667,223.005,-1423.89)">
        <path d="M1540.85,4463.36C1587.81,4463.36 1625.86,4425.29 1625.86,4378.35C1625.86,4331.41 1587.81,4293.35 1540.85,4293.35C1493.9,4293.35 1455.85,4331.41 1455.85,4378.35C1455.85,4425.29 1493.9,4463.36 1540.85,4463.36Z" style="fill:none;stroke:rgb(35,31,32);stroke-width:4.95px;"/>
    </g>
    <g transform="matrix(0.416667,0,0,0.416667,223.005,-1452.17)">
        <path d="M1898.08,4378.36L1846.88,4446.21L1898.08,4378.36Z" style="fill:rgb(30,120,181);fill-rule:nonzero;stroke:rgb(35,31,32);stroke-width:2.48px;"/>
    </g>
    <g transform="matrix(0.416667,0,0,0.416667,223.005,-1452.17)">
        <path d="M1898.08,4378.36L1898.67,4378.8L1899.27,4379.26L1846.88,4446.21L1898.08,4378.36Z" style="fill:rgb(237,28,36);fill-rule:nonzero;stroke:rgb(35,31,32);stroke-width:2.48px;"/>
    </g>
    <g transform="matrix(0.416667,0,0,0.416667,223.005,-1419.08)">
        <path d="M1899.27,4299.85C1910.95,4308.99 1920.05,4321.07 1925.64,4334.81C1931.22,4348.57 1933.11,4363.55 1931.12,4378.27C1929.12,4392.96 1923.28,4406.91 1914.25,4418.68C1905.17,4430.44 1893.2,4439.63 1879.48,4445.31L1846.88,4366.8L1899.27,4299.85Z" style="fill:rgb(45,162,72);fill-rule:nonzero;stroke:rgb(35,31,32);stroke-width:2.48px;"/>
    </g>
    <g transform="matrix(0.416667,0,0,0.416667,223.005,-1389.65)">
        <path d="M1877.88,4375.32C1876.38,4375.93 1874.85,4376.46 1873.31,4376.96C1871.77,4377.47 1870.22,4377.9 1868.68,4378.36L1846.87,4296.17L1877.88,4375.32Z" style="fill:rgb(146,104,172);fill-rule:nonzero;stroke:rgb(35,31,32);stroke-width:2.48px;"/>
    </g>
    <g transform="matrix(0.416667,0,0,0.416667,223.005,-1388.48)">
        <path d="M1868.69,4375.55C1865.4,4376.41 1862.09,4377.06 1858.77,4377.55C1855.42,4378.02 1852.04,4378.28 1848.67,4378.36L1846.88,4293.36L1868.69,4375.55Z" style="fill:rgb(140,87,76);fill-rule:nonzero;stroke:rgb(35,31,32);stroke-width:2.48px;"/>
    </g>
    <g transform="matrix(0.416667,0,0,0.416667,223.005,-1388.47)">
        <path d="M1848.67,4378.35L1847.62,4378.36L1846.58,4378.36L1846.88,4293.35L1848.67,4378.35Z" style="fill:rgb(215,122,178);fill-rule:nonzero;stroke:rgb(35,31,32);stroke-width:2.48px;"/>
    </g>
    <g transform="matrix(0.416667,0,0,0.416667,223.005,-1388.47)">
        <path d="M1846.58,4378.36L1845.97,4378.35L1845.36,4378.35L1846.88,4293.35L1846.58,4378.36Z" style="fill:rgb(188,190,50);fill-rule:nonzero;stroke:rgb(35,31,32);stroke-width:2.48px;"/>
    </g>
    <g transform="matrix(0.416667,0,0,0.416667,223.005,-1424.32)">
        <path d="M1845.36,4464.39C1831.93,4464.14 1818.77,4460.75 1806.94,4454.43C1795.09,4448.13 1784.89,4439.12 1777.21,4428.12C1769.52,4417.13 1764.55,4404.47 1762.69,4391.17C1760.83,4377.9 1762.14,4364.35 1766.51,4351.68C1770.88,4338.98 1778.2,4327.52 1787.85,4318.2C1797.52,4308.9 1809.24,4302.01 1822.08,4298.09C1834.89,4294.17 1848.48,4293.36 1861.69,4295.68C1874.89,4298.03 1887.37,4303.46 1898.08,4311.54L1846.88,4379.39L1845.36,4464.39Z" style="fill:rgb(247,147,29);fill-rule:nonzero;stroke:rgb(35,31,32);stroke-width:2.48px;"/>
    </g>
    <g transform="matrix(0.416667,0,0,0.416667,223.005,-1423.89)">
        <path d="M1846.87,4463.36C1893.83,4463.36 1931.88,4425.29 1931.88,4378.35C1931.88,4331.41 1893.83,4293.35 1846.87,4293.35C1799.91,4293.35 1761.86,4331.41 1761.86,4378.35C1761.86,4425.29 1799.91,4463.36 1846.87,4463.36Z" style="fill:none;stroke:rgb(35,31,32);stroke-width:4.95px;"/>
    </g>
    <g transform="matrix(0.416667,0,0,0.416667,223.005,-1452.17)">
        <path d="M2288.65,4378.36L2237.45,4446.21L2288.65,4378.36Z" style="fill:rgb(30,120,181);fill-rule:nonzero;stroke:rgb(35,31,32);stroke-width:2.48px;"/>
    </g>
    <g transform="matrix(0.416667,0,0,0.416667,223.005,-1452.17)">
        <path d="M2288.65,4378.36L2289.25,4378.8L2289.84,4379.26L2237.45,4446.21L2288.65,4378.36Z" style="fill:rgb(237,28,36);fill-rule:nonzero;stroke:rgb(35,31,32);stroke-width:2.48px;"/>
    </g>
    <g transform="matrix(0.416667,0,0,0.416667,223.005,-1419.08)">
        <path d="M2289.84,4299.85C2301.54,4308.99 2310.63,4321.07 2316.21,4334.81C2321.79,4348.57 2323.68,4363.55 2321.69,4378.27C2319.69,4392.96 2313.86,4406.91 2304.82,4418.68C2295.75,4430.44 2283.77,4439.63 2270.04,4445.31L2237.45,4366.8L2289.84,4299.85Z" style="fill:rgb(35,31,32);fill-rule:nonzero;stroke:rgb(35,31,32);stroke-width:4.95px;"/>
    </g>
    <g transform="matrix(0.416667,0,0,0.416667,223.005,-1388.47)">
        <path d="M2239.24,4378.35L2238.2,4378.36L2237.15,4378.36L2237.45,4293.35L2239.24,4378.35Z" style="fill:rgb(215,122,178);fill-rule:nonzero;stroke:rgb(35,31,32);stroke-width:2.48px;"/>
    </g>
    <g transform="matrix(0.416667,0,0,0.416667,223.005,-1388.47)">
        <path d="M2237.15,4378.36L2236.54,4378.35L2235.93,4378.35L2237.45,4293.35L2237.15,4378.36Z" style="fill:rgb(188,190,50);fill-rule:nonzero;stroke:rgb(35,31,32);stroke-width:2.48px;"/>
    </g>
    <g transform="matrix(0.416667,0,0,0.416667,223.005,-1424.32)">
        <path d="M2235.93,4464.39C2222.5,4464.14 2209.35,4460.75 2197.52,4454.43C2185.66,4448.13 2175.48,4439.12 2167.79,4428.12C2160.11,4417.13 2155.13,4404.47 2153.26,4391.17C2151.4,4377.9 2152.72,4364.35 2157.09,4351.68C2161.46,4338.98 2168.78,4327.52 2178.43,4318.2C2188.1,4308.9 2199.81,4302.01 2212.65,4298.09C2225.48,4294.17 2239.06,4293.36 2252.27,4295.68C2265.46,4298.03 2277.95,4303.46 2288.65,4311.54L2237.45,4379.39L2235.93,4464.39Z" style="fill:rgb(128,130,133);fill-rule:nonzero;stroke:rgb(35,31,32);stroke-width:4.95px;"/>
    </g>
    <g transform="matrix(0.416667,0,0,0.416667,223.005,-1423.89)">
        <path d="M2237.45,4463.36C2284.4,4463.36 2322.46,4425.29 2322.46,4378.35C2322.46,4331.41 2284.4,4293.35 2237.45,4293.35C2190.5,4293.35 2152.44,4331.41 2152.44,4378.35C2152.44,4425.29 2190.5,4463.36 2237.45,4463.36Z" style="fill:none;stroke:rgb(35,31,32);stroke-width:4.95px;"/>
    </g>
    <g transform="matrix(0.416667,0,0,0.416667,223.005,-1390.27)">
        <path d="M1276.4,4371.82C1274.06,4373.13 1271.65,4374.33 1269.19,4375.42C1266.72,4376.51 1264.21,4377.49 1261.64,4378.35L1234.8,4297.68L1276.4,4371.82Z" style="fill:rgb(30,120,181);fill-rule:nonzero;stroke:rgb(35,31,32);stroke-width:2.48px;"/>
    </g>
    <g transform="matrix(0.416667,0,0,0.416667,223.005,-1390.22)">
        <path d="M1261.65,4378.22L1261.43,4378.28L1261.23,4378.35L1234.81,4297.55L1261.65,4378.22Z" style="fill:rgb(237,28,36);fill-rule:nonzero;stroke:rgb(35,31,32);stroke-width:2.48px;"/>
    </g>
    <g transform="matrix(0.416667,0,0,0.416667,223.005,-1390.2)">
        <path d="M1261.23,4378.31L1261.14,4378.32L1261.09,4378.35L1234.81,4297.51L1261.23,4378.31Z" style="fill:rgb(45,162,72);fill-rule:nonzero;stroke:rgb(35,31,32);stroke-width:2.48px;"/>
    </g>
    <g transform="matrix(0.416667,0,0,0.416667,223.005,-1388.47)">
        <path d="M1235.11,4378.35L1235,4378.35L1234.81,4293.35L1235.11,4378.35Z" style="fill:rgb(146,104,172);fill-rule:nonzero;stroke:rgb(35,31,32);stroke-width:2.48px;"/>
    </g>
    <g transform="matrix(0.416667,0,0,0.416667,223.005,-1388.46)">
        <path d="M1235,4378.33L1235,4378.35L1234.81,4293.33L1235,4378.33Z" style="fill:rgb(140,87,76);fill-rule:nonzero;stroke:rgb(35,31,32);stroke-width:2.48px;"/>
    </g>
    <g transform="matrix(0.416667,0,0,0.416667,223.005,-1424.25)">
        <path d="M1235,4464.25C1221.78,4464.27 1208.75,4461.21 1196.93,4455.33C1185.1,4449.44 1174.81,4440.88 1166.88,4430.34C1158.92,4419.78 1153.56,4407.53 1151.19,4394.53C1148.81,4381.53 1149.49,4368.18 1153.18,4355.49C1156.87,4342.8 1163.46,4331.14 1172.44,4321.45C1181.4,4311.77 1192.51,4304.3 1204.88,4299.66C1217.25,4295.02 1230.53,4293.31 1243.67,4294.67C1256.79,4296.04 1269.44,4300.48 1280.56,4307.59L1234.81,4379.23L1235,4464.25Z" style="fill:rgb(215,122,178);fill-rule:nonzero;stroke:rgb(35,31,32);stroke-width:2.48px;"/>
    </g>
    <g transform="matrix(0.416667,0,0,0.416667,223.005,-1453.74)">
        <path d="M1280.56,4378.35C1291.87,4385.56 1301.3,4395.35 1308.09,4406.92C1314.88,4418.48 1318.85,4431.48 1319.65,4444.87L1234.8,4449.99L1280.56,4378.35Z" style="fill:rgb(188,190,50);fill-rule:nonzero;stroke:rgb(35,31,32);stroke-width:2.48px;"/>
    </g>
    <g transform="matrix(0.416667,0,0,0.416667,223.005,-1395.13)">
        <path d="M1319.66,4304.21C1320.63,4320.14 1317.09,4336.02 1309.43,4350.06C1301.79,4364.08 1290.35,4375.64 1276.41,4383.47L1234.81,4309.33L1319.66,4304.21Z" style="fill:rgb(247,147,29);fill-rule:nonzero;stroke:rgb(35,31,32);stroke-width:2.48px;"/>
    </g>
    <g transform="matrix(0.416667,0,0,0.416667,223.005,-1423.89)">
        <path d="M1234.81,4463.36C1281.77,4463.36 1319.82,4425.29 1319.82,4378.35C1319.82,4331.41 1281.77,4293.35 1234.81,4293.35C1187.86,4293.35 1149.8,4331.41 1149.8,4378.35C1149.8,4425.29 1187.86,4463.36 1234.81,4463.36Z" style="fill:none;stroke:rgb(35,31,32);stroke-width:4.95px;"/>
    </g>
    <g transform="matrix(0.416667,0,0,0.416667,223.005,-1641.13)">
        <path d="M1625.87,4639.04L1540.85,4639.04L1625.87,4639.04" style="fill:rgb(30,120,181);fill-rule:nonzero;"/>
    </g>
    <g transform="matrix(0.416667,0,0,0.416667,223.005,-1641.12)">
        <path d="M1625.87,4639.02L1625.87,4639.04L1540.85,4639.02L1625.87,4639.02" style="fill:rgb(245,127,31);fill-rule:nonzero;"/>
    </g>
    <g transform="matrix(0.416667,0,0,0.416667,223.005,-1605.8)">
        <path d="M1625.87,4554.28C1625.87,4575.73 1617.73,4596.43 1603.1,4612.14C1588.48,4627.85 1568.44,4637.48 1547.04,4639.04L1540.85,4554.26L1625.87,4554.28Z" style="fill:rgb(45,162,72);fill-rule:nonzero;stroke:rgb(35,31,32);stroke-width:2.48px;"/>
    </g>
    <g transform="matrix(0.416667,0,0,0.416667,223.005,-1605.77)">
        <path d="M1546.59,4639.01L1546.35,4639.02L1546.14,4639.04L1540.85,4554.19L1546.59,4639.01Z" style="fill:rgb(146,104,172);fill-rule:nonzero;stroke:rgb(35,31,32);stroke-width:2.48px;"/>
    </g>
    <g transform="matrix(0.416667,0,0,0.416667,223.005,-1605.77)">
        <path d="M1546.14,4639.03L1545.9,4639.04L1545.67,4639.04L1540.85,4554.18L1546.14,4639.03Z" style="fill:rgb(140,87,76);fill-rule:nonzero;stroke:rgb(35,31,32);stroke-width:2.48px;"/>
    </g>
    <g transform="matrix(0.416667,0,0,0.416667,223.005,-1605.74)">
        <path d="M1545.66,4638.98L1545.06,4639L1544.47,4639.04L1540.84,4554.12L1545.66,4638.98Z" style="fill:rgb(215,122,178);fill-rule:nonzero;stroke:rgb(35,31,32);stroke-width:2.48px;"/>
    </g>
    <g transform="matrix(0.416667,0,0,0.416667,223.005,-1605.74)">
        <path d="M1544.47,4639.03L1544.25,4639.04L1544.03,4639.04L1540.84,4554.11L1544.47,4639.03Z" style="fill:rgb(188,190,50);fill-rule:nonzero;stroke:rgb(35,31,32);stroke-width:2.48px;"/>
    </g>
    <g transform="matrix(0.416667,0,0,0.416667,223.005,-1641.19)">
        <path d="M1544.03,4724.13C1535.61,4724.46 1527.18,4723.51 1519.04,4721.35C1510.9,4719.19 1503.11,4715.82 1495.95,4711.37C1488.81,4706.93 1482.34,4701.43 1476.81,4695.08C1471.27,4688.74 1466.7,4681.61 1463.25,4673.91C1459.81,4666.22 1457.54,4658.05 1456.5,4649.7C1455.46,4641.33 1455.67,4632.85 1457.11,4624.55C1458.56,4616.24 1461.24,4608.21 1465.05,4600.69C1468.87,4593.18 1473.78,4586.28 1479.64,4580.2C1485.48,4574.13 1492.19,4568.97 1499.56,4564.88C1506.93,4560.78 1514.86,4557.82 1523.11,4556.06C1531.35,4554.28 1539.8,4553.78 1548.21,4554.5C1556.59,4555.23 1564.83,4557.2 1572.66,4560.35C1580.46,4563.5 1587.77,4567.8 1594.33,4573.09C1600.88,4578.4 1606.61,4584.65 1611.33,4591.64C1616.03,4598.61 1619.68,4606.27 1622.15,4614.31C1624.61,4622.38 1625.87,4630.76 1625.87,4639.2L1540.85,4639.2L1544.03,4724.13Z" style="fill:rgb(247,147,29);fill-rule:nonzero;stroke:rgb(35,31,32);stroke-width:2.48px;"/>
    </g>
    <g transform="matrix(0.416667,0,0,0.416667,223.005,-1641.15)">
        <path d="M1540.85,4724.08C1587.81,4724.08 1625.86,4686.01 1625.86,4639.08C1625.86,4592.12 1587.81,4554.05 1540.85,4554.05C1493.9,4554.05 1455.85,4592.12 1455.85,4639.08C1455.85,4686.01 1493.9,4724.08 1540.85,4724.08Z" style="fill:none;stroke:rgb(35,31,32);stroke-width:4.95px;"/>
    </g>
    <g transform="matrix(0.416667,0,0,0.416667,223.005,-1612.82)">
        <path d="M1897.95,4639.04L1846.87,4571.1L1897.95,4639.04Z" style="fill:rgb(30,120,181);fill-rule:nonzero;stroke:rgb(35,31,32);stroke-width:2.48px;"/>
    </g>
    <g transform="matrix(0.416667,0,0,0.416667,223.005,-1612.7)">
        <path d="M1897.95,4638.76L1897.77,4638.9L1897.57,4639.04L1846.87,4570.82L1897.95,4638.76Z" style="fill:rgb(237,28,36);fill-rule:nonzero;stroke:rgb(35,31,32);stroke-width:2.48px;"/>
    </g>
    <g transform="matrix(0.416667,0,0,0.416667,223.005,-1605.74)">
        <path d="M1897.58,4622.34C1890.78,4627.39 1883.3,4631.38 1875.33,4634.23C1867.36,4637.05 1859.01,4638.69 1850.56,4639.04L1846.88,4554.12L1897.58,4622.34Z" style="fill:rgb(45,162,72);fill-rule:nonzero;stroke:rgb(35,31,32);stroke-width:2.48px;"/>
    </g>
    <g transform="matrix(0.416667,0,0,0.416667,223.005,-1641.22)">
        <path d="M1847.11,4724.25C1832.26,4724.3 1817.63,4720.45 1804.74,4713.09C1791.86,4705.73 1781.09,4695.1 1773.58,4682.3C1766.04,4669.48 1762.02,4654.92 1761.87,4640.06C1761.74,4625.21 1765.48,4610.56 1772.76,4597.61C1780.04,4584.67 1790.57,4573.85 1803.33,4566.23C1816.11,4558.62 1830.63,4554.48 1845.49,4554.24C1860.34,4554 1874.99,4557.66 1888.01,4564.85C1901,4572.05 1911.9,4582.5 1919.6,4595.22L1846.88,4639.26L1847.11,4724.25Z" style="fill:rgb(146,104,172);fill-rule:nonzero;stroke:rgb(35,31,32);stroke-width:2.48px;"/>
    </g>
    <g transform="matrix(0.416667,0,0,0.416667,223.005,-1635.29)">
        <path d="M1919.6,4580.99C1929.19,4596.85 1933.35,4615.4 1931.43,4633.83C1929.5,4652.24 1921.62,4669.55 1908.95,4683.08L1846.88,4625.03L1919.6,4580.99Z" style="fill:rgb(140,87,76);fill-rule:nonzero;stroke:rgb(35,31,32);stroke-width:2.48px;"/>
    </g>
    <g transform="matrix(0.416667,0,0,0.416667,223.005,-1616.68)">
        <path d="M1908.95,4638.41L1908.67,4638.72L1908.39,4639.04L1846.88,4580.36L1908.95,4638.41Z" style="fill:rgb(215,122,178);fill-rule:nonzero;stroke:rgb(35,31,32);stroke-width:2.48px;"/>
    </g>
    <g transform="matrix(0.416667,0,0,0.416667,223.005,-1616.04)">
        <path d="M1908.39,4637.52L1907.62,4638.28L1906.86,4639.04L1846.88,4578.84L1908.39,4637.52Z" style="fill:rgb(188,190,50);fill-rule:nonzero;stroke:rgb(35,31,32);stroke-width:2.48px;"/>
    </g>
    <g transform="matrix(0.416667,0,0,0.416667,223.005,-1612.82)">
        <path d="M1906.86,4631.3C1905.47,4632.71 1904.03,4634.04 1902.55,4635.33C1901.05,4636.62 1899.53,4637.85 1897.95,4639.04L1846.88,4571.1L1906.86,4631.3Z" style="fill:rgb(247,147,29);fill-rule:nonzero;stroke:rgb(35,31,32);stroke-width:2.48px;"/>
    </g>
    <g transform="matrix(0.416667,0,0,0.416667,223.005,-1641.15)">
        <path d="M1846.87,4724.08C1893.83,4724.08 1931.88,4686.01 1931.88,4639.08C1931.88,4592.12 1893.83,4554.05 1846.87,4554.05C1799.91,4554.05 1761.86,4592.12 1761.86,4639.08C1761.86,4686.01 1799.91,4724.08 1846.87,4724.08Z" style="fill:none;stroke:rgb(35,31,32);stroke-width:4.95px;"/>
    </g>
    <g transform="matrix(0.416667,0,0,0.416667,223.005,-1612.82)">
        <path d="M2294.66,4639.04L2243.59,4571.1L2294.66,4639.04Z" style="fill:rgb(30,120,181);fill-rule:nonzero;stroke:rgb(35,31,32);stroke-width:2.48px;"/>
    </g>
    <g transform="matrix(0.416667,0,0,0.416667,223.005,-1612.7)">
        <path d="M2294.66,4638.76L2294.47,4638.9L2294.29,4639.04L2243.59,4570.82L2294.66,4638.76Z" style="fill:rgb(237,28,36);fill-rule:nonzero;stroke:rgb(35,31,32);stroke-width:2.48px;"/>
    </g>
    <g transform="matrix(0.416667,0,0,0.416667,223.005,-1605.74)">
        <path d="M2294.3,4622.34C2287.5,4627.39 2280,4631.38 2272.03,4634.23C2264.07,4637.05 2255.71,4638.69 2247.26,4639.04L2243.6,4554.12L2294.3,4622.34Z" style="fill:rgb(128,130,133);fill-rule:nonzero;stroke:rgb(35,31,32);stroke-width:4.95px;"/>
    </g>
    <g transform="matrix(0.416667,0,0,0.416667,223.005,-1641.22)">
        <path d="M2316.3,4595.22C2308.61,4582.5 2297.71,4572.05 2284.71,4564.85C2271.7,4557.66 2257.05,4554 2242.2,4554.24C2227.34,4554.48 2212.82,4558.62 2200.04,4566.23C2187.27,4573.85 2176.75,4584.67 2169.47,4597.61C2162.2,4610.56 2158.43,4625.21 2158.58,4640.06C2158.71,4654.92 2162.76,4669.48 2170.28,4682.3C2177.79,4695.1 2188.55,4705.73 2201.44,4713.09C2214.35,4720.45 2228.96,4724.3 2243.82,4724.25L2243.59,4639.26L2305.66,4697.31C2318.33,4683.78 2326.21,4666.47 2328.13,4648.06C2330.05,4629.63 2325.9,4611.08 2316.3,4595.22" style="fill:white;fill-rule:nonzero;"/>
    </g>
    <g transform="matrix(0.416667,0,0,0.416667,223.005,-1641.22)">
        <path d="M2316.3,4595.22C2308.61,4582.5 2297.71,4572.05 2284.71,4564.85C2271.7,4557.66 2257.05,4554 2242.2,4554.24C2227.34,4554.48 2212.82,4558.62 2200.04,4566.23C2187.27,4573.85 2176.75,4584.67 2169.47,4597.61C2162.2,4610.56 2158.43,4625.21 2158.58,4640.06C2158.71,4654.92 2162.76,4669.48 2170.28,4682.3C2177.79,4695.1 2188.55,4705.73 2201.44,4713.09C2214.35,4720.45 2228.96,4724.3 2243.82,4724.25L2243.59,4639.26L2305.66,4697.31C2318.33,4683.78 2326.21,4666.47 2328.13,4648.06C2330.05,4629.63 2325.9,4611.08 2316.3,4595.22Z" style="fill:none;stroke:rgb(35,31,32);stroke-width:4.95px;"/>
    </g>
    <g transform="matrix(0.416667,0,0,0.416667,223.005,-1616.68)">
        <path d="M2305.66,4638.41L2305.38,4638.72L2305.1,4639.04L2243.59,4580.36L2305.66,4638.41Z" style="fill:rgb(215,122,178);fill-rule:nonzero;stroke:rgb(35,31,32);stroke-width:2.48px;"/>
    </g>
    <g transform="matrix(0.416667,0,0,0.416667,223.005,-1616.04)">
        <path d="M2305.1,4637.52L2304.33,4638.28L2303.56,4639.04L2243.59,4578.84L2305.1,4637.52Z" style="fill:rgb(188,190,50);fill-rule:nonzero;stroke:rgb(35,31,32);stroke-width:2.48px;"/>
    </g>
    <g transform="matrix(0.416667,0,0,0.416667,223.005,-1612.82)">
        <path d="M2303.56,4631.3C2302.17,4632.71 2300.73,4634.04 2299.25,4635.33C2297.75,4636.62 2296.25,4637.85 2294.66,4639.04L2243.59,4571.1L2303.56,4631.3Z" style="fill:rgb(35,31,32);fill-rule:nonzero;stroke:rgb(35,31,32);stroke-width:4.95px;"/>
    </g>
    <g transform="matrix(0.416667,0,0,0.416667,223.005,-1641.15)">
        <path d="M2243.58,4724.08C2290.52,4724.08 2328.59,4686.01 2328.59,4639.08C2328.59,4592.12 2290.52,4554.05 2243.58,4554.05C2196.63,4554.05 2158.57,4592.12 2158.57,4639.08C2158.57,4686.01 2196.63,4724.08 2243.58,4724.08Z" style="fill:none;stroke:rgb(35,31,32);stroke-width:4.95px;"/>
    </g>
    <g transform="matrix(0.416667,0,0,0.416667,223.005,-1612.44)">
        <path d="M1284.62,4639.05L1234.8,4570.17L1284.62,4639.05Z" style="fill:rgb(30,120,181);fill-rule:nonzero;stroke:rgb(35,31,32);stroke-width:2.48px;"/>
    </g>
    <g transform="matrix(0.416667,0,0,0.416667,223.005,-1612.44)">
        <path d="M1284.62,4639.05L1234.8,4570.17L1284.62,4639.05Z" style="fill:rgb(237,28,36);fill-rule:nonzero;stroke:rgb(35,31,32);stroke-width:2.48px;"/>
    </g>
    <g transform="matrix(0.416667,0,0,0.416667,223.005,-1605.69)">
        <path d="M1284.62,4622.85C1277.31,4628.14 1269.18,4632.22 1260.59,4634.96C1251.97,4637.71 1242.97,4639.05 1233.95,4638.97L1234.8,4553.97L1284.62,4622.85Z" style="fill:rgb(45,162,72);fill-rule:nonzero;stroke:rgb(35,31,32);stroke-width:2.48px;"/>
    </g>
    <g transform="matrix(0.416667,0,0,0.416667,223.005,-1641.36)">
        <path d="M1233.95,4724.58C1219.25,4724.44 1204.87,4720.48 1192.15,4713.11C1179.44,4705.75 1168.87,4695.21 1161.44,4682.52C1154.02,4669.86 1150.02,4655.47 1149.8,4640.78C1149.59,4626.1 1153.17,4611.61 1160.23,4598.72C1167.3,4585.85 1177.57,4575.02 1190.06,4567.28C1202.56,4559.54 1216.83,4555.19 1231.49,4554.63C1246.18,4554.05 1260.75,4557.31 1273.79,4564.03C1286.85,4570.76 1297.94,4580.77 1305.97,4593.07L1234.8,4639.58L1233.95,4724.58Z" style="fill:rgb(146,104,172);fill-rule:nonzero;stroke:rgb(35,31,32);stroke-width:2.48px;"/>
    </g>
    <g transform="matrix(0.416667,0,0,0.416667,223.005,-1647.45)">
        <path d="M1305.97,4607.7C1313.42,4619.1 1318.03,4632.12 1319.38,4645.68C1320.75,4659.23 1318.84,4672.91 1313.82,4685.56L1234.81,4654.21L1305.97,4607.7Z" style="fill:rgb(140,87,76);fill-rule:nonzero;stroke:rgb(35,31,32);stroke-width:2.48px;"/>
    </g>
    <g transform="matrix(0.416667,0,0,0.416667,223.005,-1613.14)">
        <path d="M1313.82,4603.2C1311.03,4610.22 1307.3,4616.89 1302.74,4622.93C1298.19,4628.99 1292.85,4634.41 1286.86,4639.05L1234.8,4571.85L1313.82,4603.2Z" style="fill:rgb(215,122,178);fill-rule:nonzero;stroke:rgb(35,31,32);stroke-width:2.48px;"/>
    </g>
    <g transform="matrix(0.416667,0,0,0.416667,223.005,-1612.45)">
        <path d="M1286.86,4637.4L1285.75,4638.25L1284.64,4639.05L1234.81,4570.2L1286.86,4637.4Z" style="fill:rgb(188,190,50);fill-rule:nonzero;stroke:rgb(35,31,32);stroke-width:2.48px;"/>
    </g>
    <g transform="matrix(0.416667,0,0,0.416667,223.005,-1612.44)">
        <path d="M1284.63,4639.02L1284.62,4639.05L1234.8,4570.17L1284.63,4639.02Z" style="fill:rgb(247,147,29);fill-rule:nonzero;stroke:rgb(35,31,32);stroke-width:2.48px;"/>
    </g>
    <g transform="matrix(0.416667,0,0,0.416667,223.005,-1641.15)">
        <path d="M1234.81,4724.08C1281.77,4724.08 1319.82,4686.01 1319.82,4639.08C1319.82,4592.12 1281.77,4554.05 1234.81,4554.05C1187.86,4554.05 1149.8,4592.12 1149.8,4639.08C1149.8,4686.01 1187.86,4724.08 1234.81,4724.08Z" style="fill:none;stroke:rgb(35,31,32);stroke-width:4.95px;"/>
    </g>
    <g transform="matrix(0.416667,0,0,0.416667,223.005,-1041.25)">
        <rect x="1104.45" y="3788.83" width="1269.46" height="260.707" style="fill:white;"/>
    </g>
    <g transform="matrix(0.416667,0,0,0.416667,223.005,-1036.09)">
        <path d="M1623.77,3888.1C1625.65,3896.39 1626.25,3904.84 1625.63,3913.32C1624.98,3921.75 1623.08,3930.05 1619.98,3937.89L1540.84,3906.8L1623.77,3888.1Z" style="fill:rgb(30,120,181);fill-rule:nonzero;stroke:rgb(35,31,32);stroke-width:2.48px;"/>
    </g>
    <g transform="matrix(0.416667,0,0,0.416667,223.005,-1028.27)">
        <path d="M1619.98,3919.13L1619.98,3919.19L1540.85,3888.04L1619.98,3919.13Z" style="fill:rgb(237,28,36);fill-rule:nonzero;stroke:rgb(35,31,32);stroke-width:2.48px;"/>
    </g>
    <g transform="matrix(0.416667,0,0,0.416667,223.005,-1025.69)">
        <path d="M1619.98,3913C1619.55,3914 1619.12,3915.06 1618.66,3916.11C1618.2,3917.12 1617.73,3918.13 1617.24,3919.19L1540.85,3881.85L1619.98,3913Z" style="fill:rgb(45,162,72);fill-rule:nonzero;stroke:rgb(35,31,32);stroke-width:2.48px;"/>
    </g>
    <g transform="matrix(0.416667,0,0,0.416667,223.005,-1041.83)">
        <path d="M1540.88,4005.6C1524.87,4005.6 1509.19,4001.09 1495.62,3992.57C1482.08,3984.02 1471.2,3971.91 1464.26,3957.44C1457.34,3943.02 1454.58,3926.89 1456.39,3910.99C1458.2,3895.1 1464.47,3880.05 1474.46,3867.53C1484.46,3855.01 1497.78,3845.57 1512.9,3840.31C1528.02,3835.02 1544.33,3834.17 1559.92,3837.74C1575.54,3841.37 1589.81,3849.26 1601.11,3860.64C1612.4,3871.95 1620.27,3886.27 1623.78,3901.87L1540.85,3920.57L1540.88,4005.6Z" style="fill:rgb(146,104,172);fill-rule:nonzero;stroke:rgb(35,31,32);stroke-width:2.48px;"/>
    </g>
    <g transform="matrix(0.416667,0,0,0.416667,223.005,-1041.24)">
        <path d="M1540.85,4004.19C1587.81,4004.19 1625.86,3966.12 1625.86,3919.16C1625.86,3872.22 1587.81,3834.17 1540.85,3834.17C1493.9,3834.17 1455.85,3872.22 1455.85,3919.16C1455.85,3966.12 1493.9,4004.19 1540.85,4004.19Z" style="fill:none;stroke:rgb(35,31,32);stroke-width:4.95px;"/>
    </g>
    <g transform="matrix(0.416667,0,0,0.416667,223.005,-1005.83)">
        <path d="M1863.75,3917.5C1860.86,3918.08 1857.94,3918.51 1855.01,3918.79C1852.07,3919.06 1849.13,3919.2 1846.18,3919.2L1846.86,3834.17L1863.75,3917.5Z" style="fill:rgb(30,120,181);fill-rule:nonzero;stroke:rgb(35,31,32);stroke-width:2.48px;"/>
    </g>
    <g transform="matrix(0.416667,0,0,0.416667,223.005,-1041.42)">
        <path d="M1846.18,4004.61C1837.64,4004.53 1829.16,4003.16 1821.01,4000.57C1812.89,3997.97 1805.2,3994.17 1798.19,3989.27C1791.19,3984.37 1784.98,3978.47 1779.74,3971.72C1774.49,3964.98 1770.31,3957.48 1767.29,3949.5C1764.3,3941.5 1762.52,3933.11 1762.01,3924.58C1761.5,3916.06 1762.3,3907.5 1764.34,3899.22C1766.38,3890.92 1769.67,3882.99 1774.09,3875.68C1778.5,3868.36 1783.97,3861.76 1790.35,3856.08C1796.74,3850.4 1803.93,3845.72 1811.7,3842.2C1819.49,3838.66 1827.75,3836.32 1836.21,3835.25C1844.68,3834.17 1853.26,3834.38 1861.67,3835.88C1870.08,3837.36 1878.21,3840.1 1885.81,3844.02C1893.4,3847.92 1900.35,3852.95 1906.43,3858.93C1912.55,3864.93 1917.69,3871.81 1921.74,3879.32C1925.78,3886.83 1928.67,3894.93 1930.31,3903.3C1931.95,3911.69 1932.31,3920.28 1931.39,3928.76L1846.87,3919.58L1846.18,4004.61Z" style="fill:rgb(237,28,36);fill-rule:nonzero;stroke:rgb(35,31,32);stroke-width:2.48px;"/>
    </g>
    <g transform="matrix(0.416667,0,0,0.416667,223.005,-1029.3)">
        <path d="M1931.43,3899.69C1931.08,3902.67 1930.58,3905.66 1929.94,3908.61C1929.29,3911.56 1928.53,3914.5 1927.61,3917.36L1855.85,3892.33L1931.43,3899.69Z" style="fill:rgb(45,162,72);fill-rule:nonzero;stroke:rgb(35,31,32);stroke-width:2.48px;"/>
    </g>
    <g transform="matrix(0.416667,0,0,0.416667,223.005,-1006.53)">
        <path d="M1868.31,3918.12L1866.04,3918.69L1863.75,3919.19L1846.87,3835.86L1868.31,3918.12Z" style="fill:rgb(146,104,172);fill-rule:nonzero;stroke:rgb(35,31,32);stroke-width:2.48px;"/>
    </g>
    <g transform="matrix(0.416667,0,0,0.416667,223.005,-1041.24)">
        <path d="M1846.87,4004.19C1893.83,4004.19 1931.88,3966.12 1931.88,3919.16C1931.88,3872.22 1893.83,3834.17 1846.87,3834.17C1799.91,3834.17 1761.86,3872.22 1761.86,3919.16C1761.86,3966.12 1799.91,4004.19 1846.87,4004.19Z" style="fill:none;stroke:rgb(35,31,32);stroke-width:4.95px;"/>
    </g>
    <g transform="matrix(0.416667,0,0,0.416667,223.005,-1030.07)">
        <path d="M2323.76,3901.53C2323.44,3904.52 2322.95,3907.51 2322.31,3910.46C2321.66,3913.41 2320.86,3916.34 2319.91,3919.19L2239.24,3892.35L2323.76,3901.53Z" style="fill:rgb(128,130,133);fill-rule:nonzero;stroke:rgb(35,31,32);stroke-width:4.95px;"/>
    </g>
    <g transform="matrix(0.416667,0,0,0.416667,223.005,-1005.82)">
        <path d="M2239.24,3834.16L2238.55,3919.19C2241.49,3919.19 2244.44,3919.05 2247.38,3918.78C2250.32,3918.5 2253.24,3918.07 2256.14,3917.49L2258.42,3916.99L2260.69,3916.42C2274.4,3912.86 2286.99,3905.91 2297.34,3896.23C2307.69,3886.55 2315.43,3874.45 2319.91,3861L2239.24,3834.16Z" style="fill:rgb(35,31,32);fill-rule:nonzero;stroke:rgb(35,31,32);stroke-width:4.95px;"/>
    </g>
    <g transform="matrix(0.416667,0,0,0.416667,223.005,-1041.24)">
        <path d="M2239.24,4004.18C2286.2,4004.18 2324.26,3966.11 2324.26,3919.15C2324.26,3872.21 2286.2,3834.16 2239.24,3834.16C2192.28,3834.16 2154.24,3872.21 2154.24,3919.15C2154.24,3966.11 2192.28,4004.18 2239.24,4004.18Z" style="fill:none;stroke:rgb(35,31,32);stroke-width:4.95px;"/>
    </g>
    <g transform="matrix(0.416667,0,0,0.416667,223.005,-1005.82)">
        <path d="M1233.81,3919.18L1233.71,3919.18L1234.81,3834.17L1233.81,3919.18Z" style="fill:rgb(30,120,181);fill-rule:nonzero;stroke:rgb(35,31,32);stroke-width:2.48px;"/>
    </g>
    <g transform="matrix(0.416667,0,0,0.416667,223.005,-1041.52)">
        <path d="M1233.71,4004.86C1222.98,4004.72 1212.39,4002.54 1202.46,3998.47C1192.54,3994.38 1183.49,3988.45 1175.75,3981C1168.03,3973.55 1161.78,3964.7 1157.36,3954.94C1152.94,3945.15 1150.4,3934.61 1149.91,3923.91C1149.38,3913.19 1150.9,3902.46 1154.37,3892.32C1157.85,3882.16 1163.21,3872.76 1170.19,3864.61C1177.18,3856.44 1185.62,3849.69 1195.11,3844.67C1204.6,3839.66 1214.96,3836.49 1225.62,3835.33C1236.29,3834.17 1247.09,3835.04 1257.43,3837.9C1267.76,3840.74 1277.48,3845.54 1286.04,3852.01C1294.61,3858.48 1301.87,3866.51 1307.45,3875.68C1313.02,3884.84 1316.81,3895 1318.6,3905.57C1320.41,3916.15 1320.18,3926.97 1317.96,3937.47C1315.74,3947.97 1311.54,3957.95 1305.61,3966.9C1299.68,3975.83 1292.1,3983.56 1283.28,3989.69C1274.47,3995.8 1264.55,4000.2 1254.12,4002.63L1234.8,3919.85L1233.71,4004.86Z" style="fill:rgb(237,28,36);fill-rule:nonzero;stroke:rgb(35,31,32);stroke-width:2.48px;"/>
    </g>
    <g transform="matrix(0.416667,0,0,0.416667,223.005,-1005.82)">
        <path d="M1254.12,3916.94C1250.93,3917.69 1247.7,3918.26 1244.44,3918.61C1241.18,3918.99 1237.9,3919.17 1234.62,3919.17L1234.81,3834.16L1254.12,3916.94Z" style="fill:rgb(45,162,72);fill-rule:nonzero;stroke:rgb(35,31,32);stroke-width:2.48px;"/>
    </g>
    <g transform="matrix(0.416667,0,0,0.416667,223.005,-1005.82)">
        <path d="M1234.27,3919.18L1233.81,3919.18L1234.8,3834.17L1234.27,3919.18Z" style="fill:rgb(146,104,172);fill-rule:nonzero;stroke:rgb(35,31,32);stroke-width:2.48px;"/>
    </g>
    <g transform="matrix(0.416667,0,0,0.416667,223.005,-1041.24)">
        <path d="M1234.81,4004.19C1281.77,4004.19 1319.82,3966.12 1319.82,3919.16C1319.82,3872.22 1281.77,3834.17 1234.81,3834.17C1187.86,3834.17 1149.8,3872.22 1149.8,3919.16C1149.8,3966.12 1187.86,4004.19 1234.81,4004.19Z" style="fill:none;stroke:rgb(35,31,32);stroke-width:4.95px;"/>
    </g>
    <g transform="matrix(0.416667,0,0,0.416667,223.005,-816.794)">
        <path d="M1624.3,3625.01C1625.91,3633.33 1626.28,3641.82 1625.37,3650.24C1624.48,3658.67 1622.34,3666.88 1619,3674.67L1540.85,3641.2L1624.3,3625.01" style="fill:rgb(30,120,181);fill-rule:nonzero;"/>
    </g>
    <g transform="matrix(0.416667,0,0,0.416667,223.005,-810.04)">
        <path d="M1619,3658.46L1619,3658.48L1540.85,3624.99L1619,3658.46" style="fill:rgb(245,127,31);fill-rule:nonzero;"/>
    </g>
    <g transform="matrix(0.416667,0,0,0.416667,223.005,-807.49)">
        <path d="M1619,3652.36C1618.54,3653.4 1618.08,3654.42 1617.59,3655.45C1617.1,3656.46 1616.61,3657.47 1616.07,3658.48L1540.85,3618.87L1619,3652.36" style="fill:rgb(45,162,72);fill-rule:nonzero;"/>
    </g>
    <g transform="matrix(0.416667,0,0,0.416667,223.005,-824.536)">
        <path d="M1538.29,3744.76C1522.3,3744.26 1506.75,3739.28 1493.44,3730.35C1480.17,3721.43 1469.66,3708.92 1463.17,3694.28C1456.66,3679.67 1454.43,3663.47 1456.71,3647.63C1459.01,3631.79 1465.72,3616.9 1476.11,3604.71C1486.47,3592.52 1500.08,3583.49 1515.35,3578.68C1530.62,3573.87 1546.94,3573.5 1562.44,3577.55C1577.91,3581.6 1591.94,3589.98 1602.89,3601.66C1613.84,3613.34 1621.25,3627.88 1624.3,3643.59L1540.85,3659.78L1538.29,3744.76Z" style="fill:rgb(146,104,172);fill-rule:nonzero;stroke:rgb(35,31,32);stroke-width:2.48px;"/>
    </g>
    <g transform="matrix(0.416667,0,0,0.416667,223.005,-823.994)">
        <path d="M1540.85,3743.49C1587.81,3743.49 1625.86,3705.42 1625.86,3658.46C1625.86,3611.52 1587.81,3573.47 1540.85,3573.47C1493.9,3573.47 1455.85,3611.52 1455.85,3658.46C1455.85,3705.42 1493.9,3743.49 1540.85,3743.49Z" style="fill:none;stroke:rgb(35,31,32);stroke-width:4.95px;"/>
    </g>
    <g transform="matrix(0.416667,0,0,0.416667,223.005,-859.657)">
        <path d="M1798.75,3674C1806.95,3668.36 1816.08,3664.21 1825.73,3661.73C1835.38,3659.25 1845.38,3658.5 1855.29,3659.47L1846.88,3744.05L1798.75,3674Z" style="fill:rgb(30,120,181);fill-rule:nonzero;stroke:rgb(35,31,32);stroke-width:2.48px;"/>
    </g>
    <g transform="matrix(0.416667,0,0,0.416667,223.005,-825.486)">
        <path d="M1855.29,3577.46C1874.75,3579.39 1892.97,3587.99 1906.84,3601.81C1920.7,3615.58 1929.39,3633.76 1931.43,3653.22C1933.46,3672.68 1928.71,3692.24 1918,3708.62C1907.28,3724.98 1891.24,3737.16 1872.59,3743.08L1846.88,3662.04L1855.29,3577.46Z" style="fill:rgb(237,28,36);fill-rule:nonzero;stroke:rgb(35,31,32);stroke-width:2.48px;"/>
    </g>
    <g transform="matrix(0.416667,0,0,0.416667,223.005,-789.953)">
        <path d="M1872.59,3657.8L1871.43,3658.16L1870.27,3658.5L1846.87,3576.76L1872.59,3657.8Z" style="fill:rgb(45,162,72);fill-rule:nonzero;stroke:rgb(35,31,32);stroke-width:2.48px;"/>
    </g>
    <g transform="matrix(0.416667,0,0,0.416667,223.005,-817.769)">
        <path d="M1846.14,3728.55C1828.07,3728.38 1810.5,3722.46 1796.01,3711.64C1781.52,3700.83 1770.87,3685.66 1765.58,3668.37C1760.28,3651.1 1760.66,3632.56 1766.62,3615.5C1772.58,3598.43 1783.84,3583.7 1798.75,3573.47L1846.88,3643.52L1846.14,3728.55Z" style="fill:rgb(146,104,172);fill-rule:nonzero;stroke:rgb(35,31,32);stroke-width:2.48px;"/>
    </g>
    <g transform="matrix(0.416667,0,0,0.416667,223.005,-823.994)">
        <path d="M1846.88,3743.49C1893.84,3743.49 1931.89,3705.42 1931.89,3658.46C1931.89,3611.52 1893.84,3573.47 1846.88,3573.47C1799.92,3573.47 1761.87,3611.52 1761.87,3658.46C1761.87,3705.42 1799.92,3743.49 1846.88,3743.49Z" style="fill:none;stroke:rgb(35,31,32);stroke-width:4.95px;"/>
    </g>
    <g transform="matrix(0.416667,0,0,0.416667,223.005,-789.953)">
        <path d="M2264.26,3657.8L2263.11,3658.16L2261.95,3658.5L2238.55,3576.76L2264.26,3657.8Z" style="fill:rgb(45,162,72);fill-rule:nonzero;stroke:rgb(35,31,32);stroke-width:2.48px;"/>
    </g>
    <g transform="matrix(0.416667,0,0,0.416667,223.005,-824.219)">
        <path d="M2238.55,3659L2246.96,3574.42C2237.06,3573.45 2227.04,3574.2 2217.41,3576.68C2207.76,3579.16 2198.62,3583.31 2190.42,3588.95C2175.51,3599.18 2164.26,3613.91 2158.3,3630.98C2152.33,3648.04 2151.96,3666.58 2157.24,3683.85C2162.53,3701.14 2173.2,3716.31 2187.69,3727.12C2202.18,3737.94 2219.75,3743.86 2237.82,3744.03C2241.9,3744.05 2245.96,3743.8 2250.01,3743.25C2254.03,3742.69 2258.03,3741.85 2261.95,3740.74L2238.55,3659Z" style="fill:rgb(128,130,133);fill-rule:nonzero;stroke:rgb(35,31,32);stroke-width:4.95px;"/>
    </g>
    <g transform="matrix(0.416667,0,0,0.416667,223.005,-823.994)">
        <path d="M2238.55,3743.49C2285.5,3743.49 2323.55,3705.42 2323.55,3658.46C2323.55,3611.52 2285.5,3573.47 2238.55,3573.47C2191.6,3573.47 2153.54,3611.52 2153.54,3658.46C2153.54,3705.42 2191.6,3743.49 2238.55,3743.49Z" style="fill:none;stroke:rgb(35,31,32);stroke-width:4.95px;"/>
    </g>
    <g transform="matrix(0.416667,0,0,0.416667,223.005,-824.053)">
        <path d="M1234.22,3743.63C1224.29,3743.56 1214.42,3741.75 1205.13,3738.28C1195.81,3734.8 1187.18,3729.72 1179.61,3723.27C1172.06,3716.82 1165.68,3709.08 1160.79,3700.43C1155.91,3691.78 1152.57,3682.34 1150.95,3672.52C1149.33,3662.73 1149.42,3652.69 1151.26,3642.93C1153.09,3633.16 1156.62,3623.79 1161.7,3615.24C1166.76,3606.7 1173.31,3599.09 1180.99,3592.81C1188.7,3586.52 1197.43,3581.61 1206.81,3578.35C1216.2,3575.08 1226.08,3573.47 1236.02,3573.63C1245.95,3573.76 1255.8,3575.64 1265.08,3579.18C1274.38,3582.72 1282.97,3587.86 1290.48,3594.38C1297.99,3600.87 1304.3,3608.66 1309.14,3617.33C1313.96,3626.04 1317.22,3635.51 1318.77,3645.33C1320.33,3655.14 1320.14,3665.16 1318.24,3674.91C1316.33,3684.68 1312.74,3694.02 1307.61,3702.52C1302.46,3711.03 1295.88,3718.59 1288.14,3724.81L1234.81,3658.62L1234.22,3743.63Z" style="fill:rgb(30,120,181);fill-rule:nonzero;stroke:rgb(35,31,32);stroke-width:2.48px;"/>
    </g>
    <g transform="matrix(0.416667,0,0,0.416667,223.005,-796.415)">
        <path d="M1288.14,3658.48L1234.81,3592.29L1288.14,3658.48Z" style="fill:rgb(237,28,36);fill-rule:nonzero;stroke:rgb(35,31,32);stroke-width:2.48px;"/>
    </g>
    <g transform="matrix(0.416667,0,0,0.416667,223.005,-796.415)">
        <path d="M1288.14,3658.48L1234.81,3592.29L1288.14,3658.48Z" style="fill:rgb(45,162,72);fill-rule:nonzero;stroke:rgb(35,31,32);stroke-width:2.48px;"/>
    </g>
    <g transform="matrix(0.416667,0,0,0.416667,223.005,-1390.92)">
        <path d="M2270.04,4377.72L2269.27,4378.04L2268.46,4378.36L2237.45,4299.21L2270.04,4377.72Z" style="fill:rgb(215,42,41);fill-rule:nonzero;stroke:rgb(35,31,32);stroke-width:2.48px;"/>
    </g>
    <g transform="matrix(0.416667,0,0,0.416667,223.005,-1605.72)">
        <path d="M2247.26,4638.97L2245.54,4639.01L2243.83,4639.04L2243.6,4554.05L2247.26,4638.97Z" style="fill:rgb(215,42,41);fill-rule:nonzero;stroke:rgb(35,31,32);stroke-width:2.48px;"/>
    </g>
    <g transform="matrix(0.416667,0,0,0.416667,223.005,-788.399)">
        <path d="M1616.07,3612.66C1608.66,3626.74 1597.44,3638.46 1583.68,3646.48C1569.94,3654.51 1554.21,3658.48 1538.29,3658.03L1540.85,3573.05L1616.07,3612.66" style="fill:rgb(46,48,146);fill-rule:nonzero;"/>
    </g>
    <g transform="matrix(0.416667,0,0,0.416667,-422.354,-2213.47)">
        <path d="M1879.12,6078.83L1879.09,6078.83L1846.85,6000.17L1879.12,6078.83Z" style="fill:rgb(46,48,146);fill-rule:nonzero;stroke:rgb(35,31,32);stroke-width:2.48px;"/>
    </g>
    <g transform="matrix(0.416667,0,0,0.416667,-422.354,-2249.65)">
        <path d="M1319.42,6078.83L1234.8,6086.99L1319.42,6078.83Z" style="fill:rgb(46,48,146);fill-rule:nonzero;stroke:rgb(35,31,32);stroke-width:2.48px;"/>
    </g>
    <g transform="matrix(0.416667,0,0,0.416667,-422.354,-2029.11)">
        <path d="M1845.72,5903.4C1835.94,5903.29 1826.27,5901.45 1817.1,5898.04C1807.94,5894.6 1799.45,5889.64 1791.97,5883.32C1784.52,5876.99 1778.19,5869.45 1773.29,5860.98C1768.4,5852.52 1765,5843.27 1763.25,5833.66C1761.5,5824.04 1761.4,5814.19 1763.02,5804.54C1764.6,5794.89 1767.84,5785.6 1772.61,5777.04C1777.37,5768.51 1783.56,5760.86 1790.92,5754.41C1798.28,5747.97 1806.7,5742.85 1815.81,5739.28C1824.9,5735.71 1834.55,5733.74 1844.32,5733.43C1854.09,5733.13 1863.83,5734.53 1873.14,5737.55C1882.45,5740.57 1891.15,5745.18 1898.89,5751.16C1906.62,5757.15 1913.27,5764.41 1918.53,5772.65C1923.79,5780.88 1927.6,5789.97 1929.77,5799.51C1931.94,5809.05 1932.46,5818.88 1931.29,5828.59C1930.11,5838.29 1927.27,5847.73 1922.9,5856.47C1918.52,5865.21 1912.66,5873.13 1905.58,5879.89L1846.88,5818.41L1845.72,5903.4Z" style="fill:rgb(46,48,146);fill-rule:nonzero;stroke:rgb(35,31,32);stroke-width:2.48px;"/>
    </g>
    <g transform="matrix(0.416667,0,0,0.416667,-422.354,-2029.2)">
        <path d="M1234.85,5903.63C1225.59,5903.63 1216.36,5902.11 1207.57,5899.14C1198.78,5896.19 1190.56,5891.8 1183.18,5886.16C1175.81,5880.53 1169.4,5873.73 1164.24,5866.02C1159.08,5858.33 1155.19,5849.84 1152.78,5840.88C1150.33,5831.93 1149.38,5822.64 1149.96,5813.38C1150.54,5804.13 1152.61,5795.02 1156.11,5786.44C1159.63,5777.84 1164.52,5769.89 1170.59,5762.89C1176.69,5755.89 1183.87,5749.93 1191.87,5745.24C1199.88,5740.56 1208.61,5737.21 1217.69,5735.35C1226.78,5733.47 1236.1,5733.11 1245.3,5734.25C1254.5,5735.4 1263.47,5738.04 1271.82,5742.09C1280.15,5746.12 1287.8,5751.51 1294.41,5758.01C1301.01,5764.5 1306.53,5772.06 1310.7,5780.33C1314.88,5788.62 1317.68,5797.52 1318.98,5806.7C1320.27,5815.89 1320.07,5825.22 1318.36,5834.35C1316.63,5843.45 1313.43,5852.22 1308.89,5860.31L1234.8,5818.62L1234.85,5903.63Z" style="fill:rgb(46,48,146);fill-rule:nonzero;stroke:rgb(35,31,32);stroke-width:2.48px;"/>
    </g>
    <g transform="matrix(0.416667,0,0,0.416667,-422.354,-1681.62)">
        <path d="M1515.68,5362.4C1518.48,5361.53 1521.37,5360.81 1524.26,5360.23C1527.16,5359.65 1530.09,5359.23 1533.04,5358.96L1540.85,5443.6L1515.68,5362.4Z" style="fill:rgb(46,48,146);fill-rule:nonzero;stroke:rgb(35,31,32);stroke-width:2.48px;"/>
    </g>
    <g transform="matrix(0.416667,0,0,0.416667,-422.354,-1682.24)">
        <path d="M1791.51,5380.59C1802.37,5371.26 1815.41,5364.83 1829.43,5361.9C1843.46,5358.95 1858,5359.6 1871.69,5363.78L1846.87,5445.1L1791.51,5380.59Z" style="fill:rgb(46,48,146);fill-rule:nonzero;stroke:rgb(35,31,32);stroke-width:2.48px;"/>
    </g>
    <g transform="matrix(0.416667,0,0,0.416667,-422.354,-1436.77)">
        <path d="M1623.84,5098.24L1624.1,5099.45L1624.34,5100.71L1540.86,5116.69L1623.84,5098.24Z" style="fill:rgb(46,48,146);fill-rule:nonzero;stroke:rgb(35,31,32);stroke-width:2.48px;"/>
    </g>
    <g transform="matrix(0.416667,0,0,0.416667,-422.354,-1397.22)">
        <path d="M1912.8,5075.41C1908.89,5080.22 1904.48,5084.57 1899.63,5088.42C1894.77,5092.24 1889.51,5095.55 1883.96,5098.26L1846.88,5021.74L1912.8,5075.41Z" style="fill:rgb(46,48,146);fill-rule:nonzero;stroke:rgb(35,31,32);stroke-width:2.48px;"/>
    </g>
    <g transform="matrix(0.416667,0,0,0.416667,223.005,-1388.48)">
        <path d="M1544.15,4378.32L1543.94,4378.34L1543.7,4378.35L1540.85,4293.38L1544.15,4378.32Z" style="fill:rgb(46,48,146);fill-rule:nonzero;stroke:rgb(35,31,32);stroke-width:2.48px;"/>
    </g>
    <g transform="matrix(0.416667,0,0,0.416667,223.005,-1390.92)">
        <path d="M1879.48,4377.72L1878.69,4378.04L1877.88,4378.36L1846.88,4299.21L1879.48,4377.72Z" style="fill:rgb(46,48,146);fill-rule:nonzero;stroke:rgb(35,31,32);stroke-width:2.48px;"/>
    </g>
    <g transform="matrix(0.416667,0,0,0.416667,223.005,-1388.47)">
        <path d="M1261.08,4374.19C1256.87,4375.56 1252.59,4376.59 1248.25,4377.29C1243.89,4377.98 1239.5,4378.34 1235.1,4378.35L1234.8,4293.35L1261.08,4374.19Z" style="fill:rgb(46,48,146);fill-rule:nonzero;stroke:rgb(35,31,32);stroke-width:2.48px;"/>
    </g>
    <g transform="matrix(0.416667,0,0,0.416667,223.005,-1605.79)">
        <path d="M1547.04,4639L1546.82,4639.02L1546.59,4639.04L1540.85,4554.22L1547.04,4639Z" style="fill:rgb(46,48,146);fill-rule:nonzero;stroke:rgb(35,31,32);stroke-width:2.48px;"/>
    </g>
    <g transform="matrix(0.416667,0,0,0.416667,223.005,-1605.72)">
        <path d="M1850.55,4638.97L1848.83,4639.01L1847.11,4639.04L1846.88,4554.05L1850.55,4638.97Z" style="fill:rgb(46,48,146);fill-rule:nonzero;stroke:rgb(35,31,32);stroke-width:2.48px;"/>
    </g>
    <g transform="matrix(0.416667,0,0,0.416667,223.005,-1605.72)">
        <path d="M1233.95,4639.05L1234.8,4554.05L1233.95,4639.05Z" style="fill:rgb(46,48,146);fill-rule:nonzero;stroke:rgb(35,31,32);stroke-width:2.48px;"/>
    </g>
    <g transform="matrix(0.416667,0,0,0.416667,223.005,-1005.82)">
        <path d="M1617.24,3871.5C1610.27,3885.82 1599.39,3897.82 1585.89,3906.27C1572.4,3914.72 1556.79,3919.19 1540.87,3919.19L1540.84,3834.16L1617.24,3871.5Z" style="fill:rgb(46,48,146);fill-rule:nonzero;stroke:rgb(35,31,32);stroke-width:2.48px;"/>
    </g>
    <g transform="matrix(0.416667,0,0,0.416667,223.005,-1006.99)">
        <path d="M1927.53,3863.78C1923.06,3877.23 1915.3,3889.33 1904.96,3899.01C1894.63,3908.69 1882.02,3915.64 1868.31,3919.2L1846.87,3836.94L1927.53,3863.78Z" style="fill:rgb(46,48,146);fill-rule:nonzero;stroke:rgb(35,31,32);stroke-width:2.48px;"/>
    </g>
    <g transform="matrix(0.416667,0,0,0.416667,223.005,-1005.82)">
        <path d="M1234.62,3919.18L1234.27,3919.18L1234.8,3834.17L1234.62,3919.18Z" style="fill:rgb(46,48,146);fill-rule:nonzero;stroke:rgb(35,31,32);stroke-width:2.48px;"/>
    </g>
    <g transform="matrix(0.416667,0,0,0.416667,223.005,-788.574)">
        <path d="M1870.27,3655.19C1866.35,3656.3 1862.36,3657.14 1858.33,3657.7C1854.28,3658.25 1850.23,3658.5 1846.14,3658.48L1846.87,3573.45L1870.27,3655.19Z" style="fill:rgb(46,48,146);fill-rule:nonzero;stroke:rgb(35,31,32);stroke-width:2.48px;"/>
    </g>
    <g transform="matrix(0.416667,0,0,0.416667,223.005,-791.665)">
        <path d="M1288.14,3647.08C1285.31,3649.37 1282.32,3651.47 1279.2,3653.38C1276.1,3655.29 1272.87,3656.99 1269.54,3658.48L1234.81,3580.89L1288.14,3647.08Z" style="fill:rgb(46,48,146);fill-rule:nonzero;stroke:rgb(35,31,32);stroke-width:2.48px;"/>
    </g>
    <g transform="matrix(0.416667,0,0,0.416667,223.005,-788.557)">
        <path d="M1269.54,3651.02C1264,3653.49 1258.22,3655.37 1252.28,3656.62C1246.34,3657.87 1240.29,3658.48 1234.22,3658.44L1234.81,3573.43L1269.54,3651.02Z" style="fill:rgb(146,104,172);fill-rule:nonzero;stroke:rgb(35,31,32);stroke-width:2.48px;"/>
    </g>
    <g transform="matrix(0.416667,0,0,0.416667,223.005,-823.994)">
        <path d="M1234.81,3743.49C1281.77,3743.49 1319.82,3705.42 1319.82,3658.46C1319.82,3611.52 1281.77,3573.47 1234.81,3573.47C1187.86,3573.47 1149.8,3611.52 1149.8,3658.46C1149.8,3705.42 1187.86,3743.49 1234.81,3743.49Z" style="fill:none;stroke:rgb(35,31,32);stroke-width:4.95px;"/>
    </g>
    <g transform="matrix(0.294628,-0.294628,-0.294628,-0.294628,1556.68,2531.57)">
        <circle cx="1540.85" cy="6078.83" r="85.015" style="fill:none;stroke:rgb(35,31,32);stroke-width:4.95px;"/>
    </g>
    <g transform="matrix(-0.294628,0.294628,0.294628,0.294628,-1117.35,-1958.37)">
        <path d="M1495.51,6078.83L1586.19,6078.83" style="fill:none;stroke:rgb(35,31,32);stroke-width:4.95px;"/>
    </g>
    <g transform="matrix(0.294674,0.294582,0.294582,-0.294674,-2025.09,1623.97)">
        <path d="M1495.52,6078.83L1586.18,6078.83" style="fill:none;stroke:rgb(35,31,32);stroke-width:4.95px;"/>
    </g>
    <g transform="matrix(0.294628,-0.294628,-0.294628,-0.294628,1479.87,2563.39)">
        <circle cx="1540.86" cy="5818.13" r="85.019" style="fill:none;stroke:rgb(35,31,32);stroke-width:4.95px;"/>
    </g>
    <g transform="matrix(-0.294674,0.294582,0.294582,0.294674,-1040.2,-1773.13)">
        <path d="M1495.52,5818.12L1586.19,5818.12" style="fill:none;stroke:rgb(35,31,32);stroke-width:4.95px;"/>
    </g>
    <g transform="matrix(0.294674,0.294582,0.294582,-0.294674,-1948.29,1655.77)">
        <path d="M1495.52,5818.12L1586.19,5818.12" style="fill:none;stroke:rgb(35,31,32);stroke-width:4.95px;"/>
    </g>
    <g transform="matrix(0.29464,-0.294616,-0.294616,-0.29464,1307.16,2529.31)">
        <circle cx="1234.81" cy="5358.95" r="85.013" style="fill:none;stroke:rgb(35,31,32);stroke-width:4.95px;"/>
    </g>
    <g transform="matrix(-0.294628,0.294628,0.294628,0.294628,-1122.94,-1356.16)">
        <path d="M1189.47,5358.95L1280.14,5358.95" style="fill:none;stroke:rgb(35,31,32);stroke-width:4.95px;"/>
    </g>
    <g transform="matrix(0.294628,0.294628,0.294628,-0.294628,-1850.56,1801.64)">
        <path d="M1189.47,5358.95L1280.14,5358.95" style="fill:none;stroke:rgb(35,31,32);stroke-width:4.95px;"/>
    </g>
    <g transform="matrix(0.29464,-0.294616,-0.294616,-0.29464,1230.35,2561.12)">
        <circle cx="1234.81" cy="5098.24" r="85.013" style="fill:none;stroke:rgb(35,31,32);stroke-width:4.95px;"/>
    </g>
    <g transform="matrix(-0.294628,0.294628,0.294628,0.294628,-1046.13,-1170.71)">
        <path d="M1189.47,5098.24L1280.14,5098.24" style="fill:none;stroke:rgb(35,31,32);stroke-width:4.95px;"/>
    </g>
    <g transform="matrix(0.294628,0.294628,0.294628,-0.294628,-1773.74,1833.45)">
        <path d="M1189.47,5098.24L1280.14,5098.24" style="fill:none;stroke:rgb(35,31,32);stroke-width:4.95px;"/>
    </g>
    <g transform="matrix(0.416667,0,0,0.416667,223.005,-1149.87)">
        <path d="M1104.45,4049.53L2373.9,4049.53" style="fill:none;stroke:rgb(35,31,32);stroke-width:4.95px;"/>
    </g>
    <g transform="matrix(0.416667,0,0,0.416667,-422.354,-2354.86)">
        <path d="M1104.45,6209.17L2373.92,6209.17" style="fill:none;stroke:rgb(35,31,32);stroke-width:4.95px;"/>
    </g>
    <g transform="matrix(0.416667,0,0,0.416667,-422.354,-1397.22)">
        <path d="M2310.91,5075.41C2307,5080.22 2302.6,5084.57 2297.74,5088.42C2292.9,5092.24 2287.63,5095.55 2282.08,5098.26L2245,5021.74L2310.91,5075.41Z" style="fill:rgb(89,173,197);fill-rule:nonzero;stroke:rgb(35,31,32);stroke-width:2.48px;"/>
    </g>
    <g transform="matrix(0.416667,0,0,0.416667,223.005,-1388.48)">
        <path d="M2237.45,4293.36L2239.24,4378.36C2242.62,4378.28 2245.99,4378.02 2249.34,4377.55C2252.67,4377.06 2255.98,4376.41 2259.26,4375.55C2260.81,4375.09 2262.35,4374.66 2263.89,4374.15C2265.43,4373.65 2266.96,4373.12 2268.46,4372.51L2237.45,4293.36Z" style="fill:rgb(89,173,197);fill-rule:nonzero;stroke:rgb(35,31,32);stroke-width:2.48px;"/>
    </g>
    <g transform="matrix(0.416667,0,0,0.416667,223.005,-825.486)">
        <path d="M2246.96,3577.46C2266.43,3579.39 2284.65,3587.99 2298.52,3601.81C2312.37,3615.58 2321.06,3633.76 2323.09,3653.22C2325.13,3672.68 2320.39,3692.24 2309.68,3708.62C2298.95,3724.98 2282.92,3737.16 2264.26,3743.08L2238.55,3662.04L2246.96,3577.46Z" style="fill:rgb(89,173,197);fill-rule:nonzero;stroke:rgb(35,31,32);stroke-width:2.48px;"/>
    </g>
    <g transform="matrix(0.416667,0,0,0.416667,223.005,-1041.42)">
        <path d="M2238.55,4004.61C2230.01,4004.53 2221.53,4003.16 2213.39,4000.57C2205.26,3997.97 2197.58,3994.17 2190.56,3989.27C2183.57,3984.37 2177.34,3978.47 2172.11,3971.72C2166.87,3964.98 2162.68,3957.48 2159.67,3949.5C2156.67,3941.5 2154.89,3933.11 2154.38,3924.58C2153.88,3916.06 2154.67,3907.5 2156.71,3899.22C2158.76,3890.92 2162.04,3882.99 2166.47,3875.68C2170.87,3868.36 2176.35,3861.76 2182.73,3856.08C2189.11,3850.4 2196.3,3845.72 2204.07,3842.2C2211.85,3838.66 2220.12,3836.32 2228.58,3835.25C2237.06,3834.17 2245.64,3834.38 2254.05,3835.88C2262.45,3837.36 2270.58,3840.1 2278.18,3844.02C2285.78,3847.92 2292.73,3852.95 2298.82,3858.93C2304.91,3864.93 2310.07,3871.81 2314.11,3879.32C2318.15,3886.83 2321.05,3894.93 2322.69,3903.3C2324.32,3911.69 2324.68,3920.28 2323.76,3928.76L2239.24,3919.58L2238.55,4004.61Z" style="fill:white;fill-rule:nonzero;stroke:rgb(35,31,32);stroke-width:4.95px;"/>
    </g>
    <g transform="matrix(0.416667,0,0,0.416667,-181.184,-504.984)">
        <rect x="1104.45" y="3238.77" width="70.188" height="70.191" style="fill:rgb(35,31,32);stroke:rgb(35,31,32);stroke-width:4.95px;"/>
    </g>
    <g transform="matrix(0.416667,0,0,0.416667,-523.173,-550.46)">
        <rect x="1924.97" y="3238.77" width="70.191" height="70.191" style="fill:white;stroke:rgb(35,31,32);stroke-width:4.95px;"/>
    </g>
    <g transform="matrix(4.16667,0,0,4.16667,-181.184,-1039.22)">
        <text x="121.675px" y="457.518px" style="font-family:'ArialMT', 'Arial', sans-serif;font-size:7.177px;fill:rgb(35,31,32);">Unique to donor</text>
    </g>
    <g transform="matrix(4.16667,0,0,4.16667,-523.173,-1084.7)">
        <text x="203.729px" y="457.518px" style="font-family:'ArialMT', 'Arial', sans-serif;font-size:7.177px;fill:rgb(35,31,32);">Unique to patient</text>
    </g>
    <g transform="matrix(0.416667,0,0,0.416667,-497.8,-554.196)">
        <rect x="2776.4" y="3238.77" width="70.18" height="70.191" style="fill:rgb(128,130,133);"/>
    </g>
    <g transform="matrix(0.416667,0,0,0.416667,-497.8,-554.196)">
        <rect x="2776.4" y="3238.77" width="70.176" height="70.191" style="fill:none;stroke:rgb(35,31,32);stroke-width:4.95px;"/>
    </g>
    <g transform="matrix(0.416667,0,0,0.416667,-1004.06,-511.207)">
        <rect x="3990.94" y="3238.77" width="70.188" height="70.191" style="fill:rgb(89,173,197);stroke:rgb(35,31,32);stroke-width:4.95px;"/>
    </g>
    <g transform="matrix(4.16667,0,0,4.16667,-497.8,-1088.43)">
        <text x="288.87px" y="457.518px" style="font-family:'ArialMT', 'Arial', sans-serif;font-size:7.177px;fill:rgb(35,31,32);">Shared by donor and patient</text>
    </g>
    <g transform="matrix(4.16667,0,0,4.16667,-1004.06,-1045.44)">
        <text x="410.325px" y="457.518px" style="font-family:'ArialMT', 'Arial', sans-serif;font-size:7.177px;fill:rgb(35,31,32);">Undetected in donor and patient</text>
    </g>
    <g transform="matrix(4.16667,0,0,4.16667,-117.118,-443.012)">
        <text x="135.982px" y="132.642px" style="font-family:'ArialMT', 'Arial', sans-serif;font-size:9.597px;fill:rgb(35,31,32);">+ <tspan x="166.585px " y="132.642px ">=</tspan></text>
    </g>
    <g transform="matrix(4.16667,0,0,4.16667,-422.354,-443.012)">
        <text x="110.448px" y="157.469px" style="font-family:'Arial-ItalicMT', 'Arial', sans-serif;font-style:italic;font-size:7.177px;fill:rgb(35,31,32);">Klebsiella pneumoniae</text>
        <text x="184.655px" y="157.469px" style="font-family:'ArialMT', 'Arial', sans-serif;font-size:7.177px;fill:rgb(35,31,32);">(BACT_653)</text>
    </g>
    <g transform="matrix(0,-4.16667,4.16667,0,-422.354,-443.012)">
        <text x="-184.517px" y="105.636px" style="font-family:'ArialMT', 'Arial', sans-serif;font-size:5.942px;fill:rgb(35,31,32);">FMT95</text>
    </g>
    <g transform="matrix(0,-4.16667,4.16667,0,-422.354,-443.012)">
        <text x="-212.239px" y="105.636px" style="font-family:'ArialMT', 'Arial', sans-serif;font-size:5.942px;fill:rgb(35,31,32);">FMT109</text>
    </g>
    <g transform="matrix(0,-4.16667,4.16667,0,-422.354,-443.012)">
        <text x="-280.923px" y="105.636px" style="font-family:'ArialMT', 'Arial', sans-serif;font-size:5.942px;fill:rgb(35,31,32);">FMT6</text>
    </g>
    <g transform="matrix(0,-4.16667,4.16667,0,223.005,-1037.72)">
        <text x="-328.494px" y="105.636px" style="font-family:'ArialMT', 'Arial', sans-serif;font-size:5.942px;fill:rgb(35,31,32);">FMT37</text>
    </g>
    <g transform="matrix(0,-4.16667,4.16667,0,223.005,-1037.72)">
        <text x="-352.913px" y="105.636px" style="font-family:'ArialMT', 'Arial', sans-serif;font-size:5.942px;fill:rgb(35,31,32);">FMT6</text>
    </g>
    <g transform="matrix(0,-4.16667,4.16667,0,223.005,-1037.72)">
        <text x="-400.483px" y="105.636px" style="font-family:'ArialMT', 'Arial', sans-serif;font-size:5.942px;fill:rgb(35,31,32);">FMT24</text>
    </g>
    <g transform="matrix(0,-4.16667,4.16667,0,223.005,-1037.72)">
        <text x="-426.554px" y="105.636px" style="font-family:'ArialMT', 'Arial', sans-serif;font-size:5.942px;fill:rgb(35,31,32);">FMT55</text>
    </g>
    <g transform="matrix(0,-4.16667,4.16667,0,-422.354,-443.012)">
        <text x="-256.285px" y="105.636px" style="font-family:'ArialMT', 'Arial', sans-serif;font-size:5.942px;fill:rgb(35,31,32);">FMT</text>
        <text x="-244.076px" y="105.636px" style="font-family:'ArialMT', 'Arial', sans-serif;font-size:5.942px;fill:rgb(35,31,32);">1</text>
        <text x="-241.221px" y="105.636px" style="font-family:'ArialMT', 'Arial', sans-serif;font-size:5.942px;fill:rgb(35,31,32);">1</text>
    </g>
    <g transform="matrix(4.16667,0,0,4.16667,-422.354,-443.012)">
        <text x="110.448px" y="229.456px" style="font-family:'Arial-ItalicMT', 'Arial', sans-serif;font-style:italic;font-size:7.177px;fill:rgb(35,31,32);">Faecalibacterium prausnitzii</text>
        <text x="201.388px" y="229.456px" style="font-family:'ArialMT', 'Arial', sans-serif;font-size:7.177px;fill:rgb(35,31,32);">(BACT_545)</text>
    </g>
    <g transform="matrix(4.16667,0,0,4.16667,223.005,-1037.72)">
        <text x="110.448px" y="301.445px" style="font-family:'Arial-ItalicMT', 'Arial', sans-serif;font-style:italic;font-size:7.177px;fill:rgb(35,31,32);">Escherichia coli</text>
        <text x="162.299px" y="301.445px" style="font-family:'ArialMT', 'Arial', sans-serif;font-size:7.177px;fill:rgb(35,31,32);">(BACT_531)</text>
    </g>
    <g transform="matrix(4.16667,0,0,4.16667,223.005,-1037.72)">
        <text x="110.447px" y="373.433px" style="font-family:'Arial-ItalicMT', 'Arial', sans-serif;font-style:italic;font-size:7.177px;fill:rgb(35,31,32);">Dorea longicatena</text>
        <text x="170.69px" y="373.433px" style="font-family:'ArialMT', 'Arial', sans-serif;font-size:7.177px;fill:rgb(35,31,32);">(BACT_496)</text>
    </g>
</svg>
