<?xml version="1.0" encoding="UTF-8" standalone="no"?>
<!DOCTYPE svg PUBLIC "-//W3C//DTD SVG 1.1//EN" "http://www.w3.org/Graphics/SVG/1.1/DTD/svg11.dtd">
<svg width="100%" height="100%" viewBox="0 0 5464 2003" version="1.1" xmlns="http://www.w3.org/2000/svg" xmlns:xlink="http://www.w3.org/1999/xlink" xml:space="preserve" xmlns:serif="http://www.serif.com/" style="fill-rule:evenodd;clip-rule:evenodd;stroke-linecap:round;stroke-linejoin:round;stroke-miterlimit:1.5;">
    <g transform="matrix(1,0,0,1,-3165.67,-2868.29)">
        <g transform="matrix(1,0,0,1,-2200.81,370.545)">
            <g transform="matrix(1,0,0,1,646.411,-1024.93)">
                <g transform="matrix(0.594743,0,0,0.763361,2860.96,952.683)">
                    <rect x="7059.64" y="3568.55" width="1134.55" height="457.346" style="fill:none;stroke:black;stroke-width:15.22px;"/>
                </g>
                <g transform="matrix(1,0,0,1,93.039,24.1193)">
                    <text x="7117.78px" y="3893.8px" style="font-family:'Lato-Regular', 'Lato', sans-serif;font-size:200px;">T<tspan x="7219.78px 7300.38px " y="3893.8px 3893.8px ">ri</tspan>al</text>
                </g>
            </g>
            <g transform="matrix(1,0,0,1,1923.14,-1024.93)">
                <g transform="matrix(0.594743,0,0,0.763361,2860.96,952.683)">
                    <rect x="7059.64" y="3568.55" width="1134.55" height="457.346" style="fill:none;stroke:black;stroke-width:15.22px;"/>
                </g>
                <g transform="matrix(1,0,0,1,93.039,24.1193)">
                    <text x="7117.78px" y="3893.8px" style="font-family:'Lato-Regular', 'Lato', sans-serif;font-size:200px;">T<tspan x="7219.78px 7300.38px " y="3893.8px 3893.8px ">ri</tspan>al</text>
                </g>
            </g>
            <g transform="matrix(1,0,0,1,-239.631,-350.928)">
                <g transform="matrix(0.729142,0,0,0.763361,1996.42,870.481)">
                    <rect x="7059.64" y="3568.55" width="1134.55" height="457.346" style="fill:white;stroke:black;stroke-width:13.95px;"/>
                </g>
                <g transform="matrix(0.729142,0,0,0.763361,1953.09,911.083)">
                    <rect x="7059.64" y="3568.55" width="1134.55" height="457.346" style="fill:white;stroke:black;stroke-width:13.95px;"/>
                </g>
                <g transform="matrix(0.729142,0,0,0.763361,1912.16,952.683)">
                    <rect x="7059.64" y="3568.55" width="1134.55" height="457.346" style="fill:white;stroke:black;stroke-width:13.95px;"/>
                </g>
                <g transform="matrix(1,0,0,1,38.3569,24.1193)">
                    <text x="7117.78px" y="3893.8px" style="font-family:'Lato-Regular', 'Lato', sans-serif;font-size:200px;">P<tspan x="7234.98px 7336.38px " y="3893.8px 3893.8px ">at</tspan>ient</text>
                </g>
            </g>
            <g transform="matrix(1,0,0,1,1310.53,-357.632)">
                <g transform="matrix(0.657441,0,0,0.763361,2506.01,867.936)">
                    <rect x="7059.64" y="3568.55" width="1134.55" height="457.346" style="fill:white;stroke:black;stroke-width:14.62px;"/>
                </g>
                <g transform="matrix(0.657441,0,0,0.763361,2462.69,908.798)">
                    <rect x="7059.64" y="3568.55" width="1134.55" height="457.346" style="fill:white;stroke:black;stroke-width:14.62px;"/>
                </g>
                <g transform="matrix(0.657441,0,0,0.763361,2418.34,952.683)">
                    <rect x="7059.64" y="3568.55" width="1134.55" height="457.346" style="fill:white;stroke:black;stroke-width:14.62px;"/>
                </g>
                <g transform="matrix(1,0,0,1,38.3569,24.1193)">
                    <text x="7117.78px" y="3893.8px" style="font-family:'Lato-Regular', 'Lato', sans-serif;font-size:200px;">Donor</text>
                </g>
            </g>
            <g transform="matrix(1,0,0,1,1515.42,350.527)">
                <g transform="matrix(0.838325,0,0,0.763361,1255.08,867.936)">
                    <rect x="7059.64" y="3568.55" width="1134.55" height="457.346" style="fill:white;stroke:black;stroke-width:12.99px;"/>
                </g>
                <g transform="matrix(0.845501,0,0,0.763361,1148.23,908.798)">
                    <rect x="7059.64" y="3568.55" width="1134.55" height="457.346" style="fill:white;stroke:black;stroke-width:12.93px;"/>
                </g>
                <g transform="matrix(0.852762,0,0,0.763361,1039.45,952.683)">
                    <rect x="7059.64" y="3568.55" width="1134.55" height="457.346" style="fill:white;stroke:black;stroke-width:12.87px;"/>
                </g>
                <g transform="matrix(1,0,0,1,19.3569,29.1193)">
                    <text x="7117.78px" y="3893.8px" style="font-family:'Lato-Regular', 'Lato', sans-serif;font-size:200px;">Donation</text>
                </g>
            </g>
            <g transform="matrix(1,0,0,1,-495.874,346.976)">
                <g transform="matrix(0.694861,0,0,0.763361,2246.82,867.936)">
                    <rect x="7059.64" y="3568.55" width="1134.55" height="457.346" style="fill:white;stroke:black;stroke-width:14.27px;"/>
                </g>
                <g transform="matrix(0.694861,0,0,0.763361,2201.04,908.798)">
                    <rect x="7059.64" y="3568.55" width="1134.55" height="457.346" style="fill:white;stroke:black;stroke-width:14.27px;"/>
                </g>
                <g transform="matrix(0.694861,0,0,0.763361,2154.17,952.683)">
                    <rect x="7059.64" y="3568.55" width="1134.55" height="457.346" style="fill:white;stroke:black;stroke-width:14.27px;"/>
                </g>
                <g transform="matrix(1,0,0,1,19.3569,29.1193)">
                    <text x="7117.78px" y="3893.8px" style="font-family:'Lato-Regular', 'Lato', sans-serif;font-size:200px;">Sample</text>
                </g>
            </g>
            <g transform="matrix(1,0,0,1,-148.871,0)">
                <path d="M8016.63,3005L8016.63,3556.57L7941.5,3556.57" style="fill:none;stroke:black;stroke-width:10.42px;stroke-linecap:butt;"/>
                <path d="M8016.63,3478.65L7943.86,3478.65" style="fill:none;stroke:black;stroke-width:10.42px;stroke-linecap:butt;"/>
                <g transform="matrix(0.94046,0,0,1,473.037,0)">
                    <path d="M8020.14,3408.09L7944.89,3408.09" style="fill:none;stroke:black;stroke-width:10.73px;stroke-linecap:butt;"/>
                </g>
            </g>
            <g transform="matrix(1,0,0,1,-432.222,671.291)">
                <path d="M8016.63,3005L8016.63,3556.57L7941.5,3556.57" style="fill:none;stroke:black;stroke-width:10.42px;stroke-linecap:butt;"/>
                <path d="M8016.63,3478.65L7943.86,3478.65" style="fill:none;stroke:black;stroke-width:10.42px;stroke-linecap:butt;"/>
                <g transform="matrix(0.94046,0,0,1,473.037,0)">
                    <path d="M8020.14,3408.09L7944.89,3408.09" style="fill:none;stroke:black;stroke-width:10.73px;stroke-linecap:butt;"/>
                </g>
            </g>
            <g transform="matrix(-1,0,0,1,16260.6,0)">
                <path d="M8016.63,3005L8016.63,3556.57L7941.5,3556.57" style="fill:none;stroke:black;stroke-width:10.42px;stroke-linecap:butt;"/>
                <path d="M8016.63,3478.65L7943.86,3478.65" style="fill:none;stroke:black;stroke-width:10.42px;stroke-linecap:butt;"/>
                <g transform="matrix(0.94046,0,0,1,473.037,0)">
                    <path d="M8020.14,3408.09L7944.89,3408.09" style="fill:none;stroke:black;stroke-width:10.73px;stroke-linecap:butt;"/>
                </g>
            </g>
            <g transform="matrix(1,0,0,0.329809,1044.53,2013.92)">
                <path d="M8016.63,3005L8016.63,3556.57" style="fill:none;stroke:black;stroke-width:13.99px;stroke-linecap:butt;"/>
            </g>
            <g transform="matrix(-1,0,0,1,16462.3,661.673)">
                <path d="M8016.63,3005L8016.63,3556.57L7941.5,3556.57" style="fill:none;stroke:black;stroke-width:10.42px;stroke-linecap:butt;"/>
                <path d="M8016.63,3478.65L7943.86,3478.65" style="fill:none;stroke:black;stroke-width:10.42px;stroke-linecap:butt;"/>
                <g transform="matrix(0.94046,0,0,1,473.037,0)">
                    <path d="M8020.14,3408.09L7944.89,3408.09" style="fill:none;stroke:black;stroke-width:10.73px;stroke-linecap:butt;"/>
                </g>
            </g>
            <g transform="matrix(1,0,0,1,-1434.97,130.897)">
                <g>
                    <text x="8595.51px" y="2639.35px" style="font-family:'Futura-MediumItalic', 'Futura', sans-serif;font-weight:500;font-style:italic;font-size:100px;">indication</text>
                    <text x="8595.51px" y="2772.69px" style="font-family:'Futura-MediumItalic', 'Futura', sans-serif;font-weight:500;font-style:italic;font-size:100px;">se<tspan x="8692.19px 8721.53px " y="2772.69px 2772.69px ">tt</tspan>ing</text>
                </g>
            </g>
            <g transform="matrix(1,0,0,1,1117.05,1477.65)">
                <g>
                    <text x="8595.51px" y="2639.35px" style="font-family:'Futura-MediumItalic', 'Futura', sans-serif;font-weight:500;font-style:italic;font-size:100px;">sequencing dat<tspan x="9291.8px " y="2639.35px ">a</tspan></text>
                    <text x="8595.51px" y="2772.69px" style="font-family:'Futura-MediumItalic', 'Futura', sans-serif;font-weight:500;font-style:italic;font-size:100px;">SCF<tspan x="8765.14px 8835.74px " y="2772.69px 2772.69px ">A </tspan>measur<tspan x="9195.07px 9251.17px " y="2772.69px 2772.69px ">em</tspan>ents</text>
                </g>
            </g>
            <g transform="matrix(1,0,0,1,-3060.64,1470.66)">
                <g>
                    <text x="8595.51px" y="2639.35px" style="font-family:'Futura-MediumItalic', 'Futura', sans-serif;font-weight:500;font-style:italic;font-size:100px;">sequencing dat<tspan x="9291.8px " y="2639.35px ">a</tspan></text>
                    <text x="8595.51px" y="2772.69px" style="font-family:'Futura-MediumItalic', 'Futura', sans-serif;font-weight:500;font-style:italic;font-size:100px;">SCF<tspan x="8765.14px 8835.74px " y="2772.69px 2772.69px ">A </tspan>measur<tspan x="9195.07px 9251.17px " y="2772.69px 2772.69px ">em</tspan>ents</text>
                </g>
            </g>
            <g transform="matrix(1,0,0,1,708.785,666.401)">
                <g>
                    <text x="8595.51px" y="2639.35px" style="font-family:'Futura-MediumItalic', 'Futura', sans-serif;font-weight:500;font-style:italic;font-size:100px;">se<tspan x="8690.38px " y="2639.35px ">x</tspan></text>
                    <text x="8595.51px" y="2772.69px" style="font-family:'Futura-MediumItalic', 'Futura', sans-serif;font-weight:500;font-style:italic;font-size:100px;">ag<tspan x="8717.24px " y="2772.69px ">e</tspan></text>
                    <text x="8595.51px" y="2906.02px" style="font-family:'Futura-MediumItalic', 'Futura', sans-serif;font-weight:500;font-style:italic;font-size:100px;">BMI</text>
                </g>
            </g>
            <g transform="matrix(1,0,0,1,-864.59,1372.47)">
                <g>
                    <text x="8675.96px" y="2639.35px" style="font-family:'Futura-Medium', 'Futura', sans-serif;font-weight:500;font-size:100px;">FMT links</text>
                    <text x="8665.2px" y="2742.33px" style="font-family:'Futura-Medium', 'Futura', sans-serif;font-weight:500;font-size:100px;">donations</text>
                    <text x="8608.58px" y="2845.31px" style="font-family:'Futura-Medium', 'Futura', sans-serif;font-weight:500;font-size:100px;">and patients</text>
                </g>
            </g>
            <g transform="matrix(1,0,0,1,1109.4,353.18)">
                <g>
                    <text x="8615.39px" y="2639.35px" style="font-family:'Futura-Medium', 'Futura', sans-serif;font-weight:500;font-size:100px;">Some donors ar<tspan x="9339.61px " y="2639.35px ">e</tspan></text>
                    <text x="8650.67px" y="2742.33px" style="font-family:'Futura-Medium', 'Futura', sans-serif;font-weight:500;font-size:100px;">in multiple tr<tspan x="9209.31px 9234.21px " y="2742.33px 2742.33px ">ia</tspan>ls</text>
                </g>
            </g>
            <g transform="matrix(1,0,0,1,-2587.41,772.178)">
                <g>
                    <text x="8595.51px" y="2639.35px" style="font-family:'Futura-MediumItalic', 'Futura', sans-serif;font-weight:500;font-style:italic;font-size:100px;">clinical outcome</text>
                    <text x="8595.51px" y="2772.69px" style="font-family:'Futura-MediumItalic', 'Futura', sans-serif;font-weight:500;font-style:italic;font-size:100px;">comorbidities</text>
                </g>
            </g>
            <g transform="matrix(1,0,0,1,-11.5747,-4.9606)">
                <path d="M8538.7,4014.65L7703.27,3683.19" style="fill:none;stroke:black;stroke-width:10.42px;stroke-linecap:butt;stroke-dasharray:10.42,10.42;"/>
            </g>
        </g>
        <g transform="matrix(1.02942,0,0,0.976595,-98.0829,217.414)">
            <rect x="3176.55" y="2720.81" width="5295.48" height="2037.96" style="fill:none;stroke:black;stroke-width:12.46px;stroke-linecap:butt;"/>
        </g>
    </g>
</svg>
