<?xml version="1.0" encoding="UTF-8" standalone="no"?>
<!DOCTYPE svg PUBLIC "-//W3C//DTD SVG 1.1//EN" "http://www.w3.org/Graphics/SVG/1.1/DTD/svg11.dtd">
<svg width="100%" height="100%" viewBox="0 0 441 152" version="1.1" xmlns="http://www.w3.org/2000/svg" xmlns:xlink="http://www.w3.org/1999/xlink" xml:space="preserve" xmlns:serif="http://www.serif.com/" style="fill-rule:evenodd;clip-rule:evenodd;stroke-linejoin:round;stroke-miterlimit:1.41421;">
    <g id="Layer-1" serif:id="Layer 1" transform="matrix(1,0,0,1,-175.083,-230.447)">
        <g transform="matrix(-0.0603724,-0.998176,-0.998176,0.0603724,271.473,338.776)">
            <rect x="-18.822" y="17.718" width="36.442" height="1" style="fill:rgb(121,198,192);"/>
        </g>
        <g transform="matrix(-0.0603535,-0.998177,-0.998177,0.0603535,272.305,264.081)">
            <rect x="-24.493" y="23.057" width="47.139" height="1" style="fill:rgb(121,198,192);"/>
        </g>
        <g transform="matrix(-0.0602492,-0.998183,-0.998183,0.0602492,251.802,294.462)">
            <rect x="-0.804" y="0.757" width="2.457" height="1" style="fill:rgb(121,198,192);"/>
        </g>
        <g transform="matrix(-0.0602737,-0.998182,-0.998182,0.0602737,253.253,318.474)">
            <rect x="-0.803" y="0.756" width="2.456" height="1" style="fill:rgb(121,198,192);"/>
        </g>
        <g transform="matrix(-0.180219,-0.983627,-0.983627,0.180219,282.201,338.234)">
            <rect x="-28.988" y="24.159" width="49.956" height="0.999" style="fill:rgb(121,198,192);"/>
        </g>
        <g transform="matrix(-0.180231,-0.983624,-0.983624,0.180231,267.761,256.515)">
            <rect x="-29.618" y="24.683" width="51.024" height="1" style="fill:rgb(121,198,192);"/>
        </g>
        <g transform="matrix(-0.180354,-0.983602,-0.983602,0.180354,250.405,294.32)">
            <rect x="-0.958" y="0.797" width="2.457" height="1" style="fill:rgb(121,198,192);"/>
        </g>
        <g transform="matrix(-0.17996,-0.983674,-0.983674,0.17996,254.741,317.983)">
            <rect x="-0.958" y="0.798" width="2.456" height="0.999" style="fill:rgb(121,198,192);"/>
        </g>
        <g transform="matrix(-0.297476,-0.954729,-0.954729,0.297476,271.566,327.247)">
            <rect x="-17.142" y="12.613" width="27.159" height="1" style="fill:rgb(211,216,0);"/>
        </g>
        <g transform="matrix(-0.297467,-0.954732,-0.954732,0.297467,249.955,281.674)">
            <rect x="-7.527" y="5.538" width="12.338" height="1" style="fill:rgb(121,198,192);"/>
        </g>
        <g transform="matrix(-0.297603,-0.95469,-0.95469,0.297603,248.964,294.35)">
            <rect x="-1.116" y="0.821" width="2.457" height="1" style="fill:rgb(121,198,192);"/>
        </g>
        <g transform="matrix(-0.297116,-0.954841,-0.954841,0.297116,256.122,317.317)">
            <rect x="-1.117" y="0.822" width="2.458" height="1" style="fill:rgb(211,216,0);"/>
        </g>
        <g transform="matrix(-0.410376,-0.911916,-0.911916,0.410376,290.777,326.172)">
            <rect x="-42.251" y="27.318" width="60.562" height="1" style="fill:rgb(121,198,192);"/>
        </g>
        <g transform="matrix(-0.410377,-0.911916,-0.911916,0.410377,252.67,241.138)">
            <rect x="-42.476" y="27.464" width="60.881" height="1" style="fill:rgb(211,216,0);"/>
        </g>
        <g transform="matrix(-0.410365,-0.911922,-0.911922,0.410365,247.5,294.564)">
            <rect x="-1.276" y="0.825" width="2.457" height="1" style="fill:rgb(211,216,0);"/>
        </g>
        <g transform="matrix(-0.410517,-0.911853,-0.911853,0.410517,257.372,316.501)">
            <rect x="-1.276" y="0.825" width="2.456" height="1" style="fill:rgb(121,198,192);"/>
        </g>
        <g transform="matrix(-0.517316,-0.855795,-0.855795,0.517316,277.849,319.678)">
            <rect x="-27.041" y="15.251" width="36.207" height="1" style="fill:rgb(230,51,42);"/>
        </g>
        <g transform="matrix(-0.517323,-0.85579,-0.85579,0.517323,242.486,265.167)">
            <rect x="-23.382" y="13.187" width="31.383" height="1.001" style="fill:rgb(121,198,192);"/>
        </g>
        <g transform="matrix(-0.517426,-0.855728,-0.855728,0.517426,246.038,294.971)">
            <rect x="-1.436" y="0.809" width="2.456" height="1" style="fill:rgb(121,198,192);"/>
        </g>
        <g transform="matrix(-0.517066,-0.855946,-0.855946,0.517066,258.483,315.558)">
            <rect x="-1.437" y="0.809" width="2.458" height="1" style="fill:rgb(230,51,42);"/>
        </g>
        <g transform="matrix(-0.616701,-0.787198,-0.787198,0.616701,276.504,315.83)">
            <rect x="-27.507" y="13.393" width="34.528" height="1.001" style="fill:rgb(121,198,192);"/>
        </g>
        <g transform="matrix(-0.616708,-0.787192,-0.787192,0.616708,232.41,249.999)">
            <rect x="-39.597" y="19.28" width="49.472" height="1.001" style="fill:rgb(230,51,42);"/>
        </g>
        <g transform="matrix(-0.61667,-0.787221,-0.787221,0.61667,244.609,295.578)">
            <rect x="-1.593" y="0.775" width="2.457" height="1" style="fill:rgb(230,51,42);"/>
        </g>
        <g transform="matrix(-0.61667,-0.787221,-0.787221,0.61667,259.445,314.515)">
            <rect x="-1.592" y="0.775" width="2.457" height="1" style="fill:rgb(121,198,192);"/>
        </g>
        <g transform="matrix(-0.707088,-0.707126,-0.707126,0.707088,281.575,309.965)">
            <rect x="-44.001" y="18.227" width="51.965" height="1" style="fill:rgb(211,216,0);"/>
        </g>
        <g transform="matrix(-0.70705,-0.707164,-0.707164,0.70705,237.19,287.17)">
            <rect x="-7.142" y="2.959" width="8.782" height="1" style="fill:rgb(121,198,192);"/>
        </g>
        <g transform="matrix(-0.707107,-0.707107,-0.707107,0.707107,243.243,296.387)">
            <rect x="-1.743" y="0.722" width="2.456" height="1" style="fill:rgb(121,198,192);"/>
        </g>
        <g transform="matrix(-0.707107,-0.707107,-0.707107,0.707107,260.253,313.397)">
            <rect x="-1.743" y="0.722" width="2.456" height="1" style="fill:rgb(211,216,0);"/>
        </g>
        <g transform="matrix(-0.787168,-0.616739,-0.616739,0.787168,276.538,308.198)">
            <rect x="-39.01" y="13.462" width="44.001" height="1" style="fill:rgb(121,198,192);"/>
        </g>
        <g transform="matrix(-0.787163,-0.616745,-0.616745,0.787163,219.017,265.126)">
            <rect x="-34.456" y="11.89" width="38.905" height="1" style="fill:rgb(211,216,0);"/>
        </g>
        <g transform="matrix(-0.787067,-0.616868,-0.616868,0.787067,241.972,297.39)">
            <rect x="-1.886" y="0.651" width="2.456" height="1" style="fill:rgb(211,216,0);"/>
        </g>
        <g transform="matrix(-0.786826,-0.617175,-0.617175,0.786826,260.908,312.226)">
            <rect x="-1.887" y="0.651" width="2.458" height="1" style="fill:rgb(121,198,192);"/>
        </g>
        <g transform="matrix(-0.855767,-0.517361,-0.517361,0.855767,277.423,303.095)">
            <rect x="-56.066" y="15.631" width="60.704" height="1" style="fill:rgb(121,198,192);"/>
        </g>
        <g transform="matrix(-0.855769,-0.517358,-0.517358,0.855769,202.177,259.631)">
            <rect x="-49.847" y="13.897" width="54.001" height="1" style="fill:rgb(121,198,192);"/>
        </g>
        <g transform="matrix(-0.855728,-0.517426,-0.517426,0.855728,240.827,298.578)">
            <rect x="-2.021" y="0.563" width="2.457" height="1" style="fill:rgb(121,198,192);"/>
        </g>
        <g transform="matrix(-0.855728,-0.517426,-0.517426,0.855728,261.414,311.023)">
            <rect x="-2.021" y="0.563" width="2.457" height="1.001" style="fill:rgb(121,198,192);"/>
        </g>
        <g transform="matrix(-0.911894,-0.410426,-0.410426,0.911894,271.182,305.928)">
            <rect x="-36.598" y="7.857" width="38.499" height="1" style="fill:rgb(121,198,192);"/>
        </g>
        <g transform="matrix(-0.911887,-0.410441,-0.410441,0.911887,200.533,272.414)">
            <rect x="-43.882" y="9.421" width="46.119" height="1" style="fill:rgb(211,216,0);"/>
        </g>
        <g transform="matrix(-0.911769,-0.410703,-0.410703,0.911769,239.84,299.932)">
            <rect x="-2.143" y="0.46" width="2.457" height="1" style="fill:rgb(211,216,0);"/>
        </g>
        <g transform="matrix(-0.911922,-0.410365,-0.410365,0.911922,261.775,309.806)">
            <rect x="-2.143" y="0.46" width="2.457" height="1" style="fill:rgb(121,198,192);"/>
        </g>
        <g transform="matrix(-0.954718,-0.297512,-0.297512,0.954718,268.959,306.499)">
            <rect x="-28.961" y="4.408" width="29.784" height="1" style="fill:rgb(211,216,0);"/>
        </g>
        <g transform="matrix(-0.954707,-0.297549,-0.297549,0.954707,194.935,280.858)">
            <rect x="-45.081" y="6.862" width="46.278" height="1" style="fill:rgb(121,198,192);"/>
        </g>
        <g transform="matrix(-0.954805,-0.297232,-0.297232,0.954805,239.038,301.432)">
            <rect x="-2.252" y="0.342" width="2.457" height="1.001" style="fill:rgb(121,198,192);"/>
        </g>
        <g transform="matrix(-0.95469,-0.297603,-0.297603,0.95469,262.005,308.589)">
            <rect x="-2.252" y="0.343" width="2.457" height="1.001" style="fill:rgb(211,216,0);"/>
        </g>
        <g transform="matrix(-0.983615,-0.180281,-0.180281,0.983615,268.837,303.272)">
            <rect x="-60.206" y="5.472" width="60.795" height="1.001" style="fill:rgb(230,51,42);"/>
        </g>
        <g transform="matrix(-0.983619,-0.180257,-0.180257,0.983619,208.974,295.338)">
            <rect x="-27.327" y="2.483" width="27.644" height="1.001" style="fill:rgb(121,198,192);"/>
        </g>
        <g transform="matrix(-0.983674,-0.17996,-0.17996,0.983674,238.445,303.048)">
            <rect x="-2.346" y="0.213" width="2.456" height="1.001" style="fill:rgb(121,198,192);"/>
        </g>
        <g transform="matrix(-0.983674,-0.17996,-0.17996,0.983674,262.107,307.385)">
            <rect x="-2.346" y="0.213" width="2.456" height="1.001" style="fill:rgb(230,51,42);"/>
        </g>
        <g transform="matrix(-0.998175,-0.0603942,-0.0603942,0.998175,267.607,305.18)">
            <rect x="-47.216" y="1.427" width="47.29" height="1" style="fill:rgb(211,216,0);"/>
        </g>
        <g transform="matrix(-0.998174,-0.0604081,-0.0604081,0.998174,175.339,299.208)">
            <rect x="-59.99" y="1.814" width="60.076" height="1" style="fill:rgb(230,51,42);"/>
        </g>
        <g transform="matrix(-0.998183,-0.0602492,-0.0602492,0.998183,238.083,304.75)">
            <rect x="-2.424" y="0.073" width="2.457" height="1" style="fill:rgb(230,51,42);"/>
        </g>
        <g transform="matrix(-0.998183,-0.0602492,-0.0602492,0.998183,262.095,306.203)">
            <rect x="-2.424" y="0.073" width="2.457" height="1" style="fill:rgb(211,216,0);"/>
        </g>
        <g transform="matrix(-0.0610084,-0.998137,-0.998137,0.0610084,285.315,319.576)">
            <rect x="14.978" y="-14.11" width="1.02" height="31.095" style="fill:rgb(121,198,192);"/>
        </g>
        <g transform="matrix(-0.0610084,-0.998137,-0.998137,0.0610084,214.717,332.079)">
            <rect x="23.192" y="-21.849" width="1.032" height="47.565" style="fill:rgb(211,216,0);"/>
        </g>
        <g transform="matrix(-0.0610084,-0.998137,-0.998137,0.0610084,239.886,308.004)">
            <rect x="0.695" y="-0.655" width="1.002" height="2.456" style="fill:rgb(211,216,0);"/>
        </g>
        <g transform="matrix(-0.0600119,-0.998198,-0.998198,0.0600119,263.897,306.553)">
            <rect x="0.695" y="-0.655" width="1.001" height="2.456" style="fill:rgb(121,198,192);"/>
        </g>
        <g transform="matrix(-0.180908,-0.9835,-0.9835,0.180908,308.376,325.977)">
            <rect x="29.311" y="-24.447" width="1.043" height="60.842" style="fill:rgb(121,198,192);"/>
        </g>
        <g transform="matrix(-0.180908,-0.9835,-0.9835,0.180908,221.134,334.851)">
            <rect x="22.32" y="-18.616" width="1.032" height="46.619" style="fill:rgb(121,198,192);"/>
        </g>
        <g transform="matrix(-0.179941,-0.983677,-0.983677,0.179941,240.319,309.259)">
            <rect x="0.617" y="-0.515" width="1.001" height="2.456" style="fill:rgb(121,198,192);"/>
        </g>
        <g transform="matrix(-0.180908,-0.9835,-0.9835,0.180908,263.983,304.922)">
            <rect x="0.616" y="-0.514" width="1.002" height="2.456" style="fill:rgb(121,198,192);"/>
        </g>
        <g transform="matrix(-0.297877,-0.954604,-0.954604,0.297877,289.915,308.877)">
            <rect x="13.631" y="-10.034" width="1.013" height="29.927" style="fill:rgb(211,216,0);"/>
        </g>
        <g transform="matrix(-0.297877,-0.954604,-0.954604,0.297877,231.366,324.654)">
            <rect x="11.278" y="-8.302" width="1.01" height="24.996" style="fill:rgb(121,198,192);"/>
        </g>
        <g transform="matrix(-0.297877,-0.954604,-0.954604,0.297877,240.874,310.423)">
            <rect x="0.522" y="-0.385" width="1.002" height="2.457" style="fill:rgb(121,198,192);"/>
        </g>
        <g transform="matrix(-0.297877,-0.954604,-0.954604,0.297877,263.841,303.268)">
            <rect x="0.522" y="-0.385" width="1.002" height="2.456" style="fill:rgb(211,216,0);"/>
        </g>
        <g transform="matrix(-0.410032,-0.912071,-0.912071,0.410032,316.843,306.807)">
            <rect x="27.029" y="-17.484" width="1.01" height="60.831" style="fill:rgb(121,198,192);"/>
        </g>
        <g transform="matrix(-0.410032,-0.912071,-0.912071,0.410032,232.594,340.036)">
            <rect x="22.759" y="-14.722" width="1.02" height="51.483" style="fill:rgb(121,198,192);"/>
        </g>
        <g transform="matrix(-0.410863,-0.911697,-0.911697,0.410863,241.531,311.495)">
            <rect x="0.414" y="-0.268" width="1.001" height="2.457" style="fill:rgb(121,198,192);"/>
        </g>
        <g transform="matrix(-0.410032,-0.912071,-0.912071,0.410032,263.467,301.625)">
            <rect x="0.415" y="-0.268" width="1.001" height="2.456" style="fill:rgb(121,198,192);"/>
        </g>
        <g transform="matrix(-0.518169,-0.855278,-0.855278,0.518169,276.42,296.957)">
            <rect x="4.678" y="-2.643" width="1.012" height="12.723" style="fill:rgb(230,51,42);"/>
        </g>
        <g transform="matrix(-0.518169,-0.855278,-0.855278,0.518169,237.875,322.46)">
            <rect x="6.561" y="-3.706" width="1.017" height="17.128" style="fill:rgb(211,216,0);"/>
        </g>
        <g transform="matrix(-0.518169,-0.855278,-0.855278,0.518169,242.274,312.469)">
            <rect x="0.291" y="-0.165" width="1.002" height="2.456" style="fill:rgb(211,216,0);"/>
        </g>
        <g transform="matrix(-0.518169,-0.855278,-0.855278,0.518169,262.861,300.024)">
            <rect x="0.291" y="-0.165" width="1.002" height="2.456" style="fill:rgb(230,51,42);"/>
        </g>
        <g transform="matrix(-0.616982,-0.786977,-0.786977,0.616982,296.528,288.684)">
            <rect x="13.695" y="-6.672" width="1.014" height="36.866" style="fill:rgb(121,198,192);"/>
        </g>
        <g transform="matrix(-0.616362,-0.787463,-0.787463,0.616362,241.559,329.349)">
            <rect x="11.8" y="-5.749" width="1.014" height="32.051" style="fill:rgb(121,198,192);"/>
        </g>
        <g transform="matrix(-0.616362,-0.787463,-0.787463,0.616362,243.092,313.347)">
            <rect x="0.159" y="-0.078" width="1.001" height="2.457" style="fill:rgb(121,198,192);"/>
        </g>
        <g transform="matrix(-0.616362,-0.787463,-0.787463,0.616362,262.029,298.512)">
            <rect x="0.159" y="-0.077" width="1.001" height="2.457" style="fill:rgb(121,198,192);"/>
        </g>
        <g transform="matrix(-0.707107,-0.707107,-0.707107,0.707107,314.588,272.676)">
            <rect x="20.638" y="-8.549" width="1.001" height="60.787" style="fill:rgb(211,216,0);"/>
        </g>
        <g transform="matrix(-0.707107,-0.707107,-0.707107,0.707107,245.575,331.012)">
            <rect x="13.092" y="-5.413" width="1" height="39.365" style="fill:rgb(121,198,192);"/>
        </g>
        <g transform="matrix(-0.707107,-0.707107,-0.707107,0.707107,243.97,314.126)">
            <rect x="0.015" y="-0.006" width="1.001" height="2.456" style="fill:rgb(121,198,192);"/>
        </g>
        <g transform="matrix(-0.707107,-0.707107,-0.707107,0.707107,260.981,297.116)">
            <rect x="0.015" y="-0.006" width="1.001" height="2.456" style="fill:rgb(211,216,0);"/>
        </g>
        <g transform="matrix(-0.786977,-0.616982,-0.616982,0.786977,279.271,281.153)">
            <rect x="6.154" y="-2.125" width="1.007" height="22.865" style="fill:rgb(121,198,192);"/>
        </g>
        <g transform="matrix(-0.802448,-0.596723,-0.596723,0.802448,251.029,333.368)">
            <path d="M17.784,51.034L18.615,51.034L16.992,-5.816L15.991,-5.79L17.784,51.034Z" style="fill:rgb(121,198,192);fill-rule:nonzero;"/>
        </g>
        <g transform="matrix(-0.786977,-0.616982,-0.616982,0.786977,244.903,314.809)">
            <rect x="-0.137" y="0.046" width="1.001" height="2.458" style="fill:rgb(121,198,192);"/>
        </g>
        <g transform="matrix(-0.786977,-0.616982,-0.616982,0.786977,259.739,295.873)">
            <rect x="-0.136" y="0.047" width="1" height="2.456" style="fill:rgb(121,198,192);"/>
        </g>
        <g transform="matrix(-0.855278,-0.518169,-0.518169,0.855278,297.285,256.185)">
            <rect x="13.016" y="-3.635" width="1.051" height="53.999" style="fill:rgb(121,198,192);"/>
        </g>
        <g transform="matrix(-0.854835,-0.5189,-0.5189,0.854835,251.064,328.508)">
            <path d="M10.849,42.646L11.849,42.646L11.931,-3.034L10.931,-3.037L10.849,42.646Z" style="fill:rgb(211,216,0);fill-rule:nonzero;"/>
        </g>
        <g transform="matrix(-0.854835,-0.5189,-0.5189,0.854835,245.883,315.402)">
            <rect x="-0.294" y="0.08" width="1.004" height="2.457" style="fill:rgb(211,216,0);"/>
        </g>
        <g transform="matrix(-0.855278,-0.518169,-0.518169,0.855278,258.328,294.814)">
            <rect x="-0.293" y="0.081" width="1.003" height="2.457" style="fill:rgb(121,198,192);"/>
        </g>
        <g transform="matrix(-0.912071,-0.410032,-0.410032,0.912071,292.713,243.189)">
            <rect x="11.481" y="-2.468" width="1.027" height="60.669" style="fill:rgb(121,198,192);"/>
        </g>
        <g transform="matrix(-0.912071,-0.410032,-0.410032,0.912071,250.194,324.876)">
            <rect x="6.237" y="-1.341" width="1.015" height="35.09" style="fill:rgb(121,198,192);"/>
        </g>
        <g transform="matrix(-0.912071,-0.410032,-0.410032,0.912071,246.898,315.9)">
            <rect x="-0.453" y="0.097" width="1.001" height="2.455" style="fill:rgb(121,198,192);"/>
        </g>
        <g transform="matrix(-0.912071,-0.410032,-0.410032,0.912071,256.772,293.964)">
            <rect x="-0.453" y="0.097" width="1.001" height="2.455" style="fill:rgb(121,198,192);"/>
        </g>
        <g transform="matrix(-0.954888,-0.296965,-0.296965,0.954888,265.269,270.614)">
            <rect x="2.322" y="-0.355" width="1.013" height="22.224" style="fill:rgb(211,216,0);"/>
        </g>
        <g transform="matrix(-0.954888,-0.296965,-0.296965,0.954888,248.118,322.324)">
            <rect x="1.333" y="-0.204" width="1.009" height="15.566" style="fill:rgb(230,51,42);"/>
        </g>
        <g transform="matrix(-0.954888,-0.296965,-0.296965,0.954888,247.954,316.307)">
            <rect x="-0.613" y="0.093" width="1.001" height="2.457" style="fill:rgb(230,51,42);"/>
        </g>
        <g transform="matrix(-0.954888,-0.296965,-0.296965,0.954888,255.112,293.341)">
            <rect x="-0.613" y="0.093" width="1.002" height="2.456" style="fill:rgb(211,216,0);"/>
        </g>
        <g transform="matrix(-0.983645,-0.180118,-0.180118,0.983645,269.916,231.834)">
            <rect x="4.47" y="-0.407" width="1.01" height="60.642" style="fill:rgb(121,198,192);"/>
        </g>
        <g transform="matrix(-0.983645,-0.180118,-0.180118,0.983645,253.129,323.344)">
            <rect x="4.456" y="-0.406" width="1.01" height="60.488" style="fill:rgb(211,216,0);"/>
        </g>
        <g transform="matrix(-0.983645,-0.180118,-0.180118,0.983645,249.048,316.626)">
            <rect x="-0.77" y="0.07" width="1" height="2.456" style="fill:rgb(211,216,0);"/>
        </g>
        <g transform="matrix(-0.983645,-0.180118,-0.180118,0.983645,253.385,292.963)">
            <rect x="-0.77" y="0.07" width="1" height="2.456" style="fill:rgb(121,198,192);"/>
        </g>
        <g transform="matrix(-0.998137,-0.0610084,-0.0610084,0.998137,253.803,267.166)">
            <rect x="-0.316" y="0.01" width="1.014" height="22.829" style="fill:rgb(121,198,192);"/>
        </g>
        <g transform="matrix(-0.998076,-0.0620047,-0.0620047,0.998076,251.276,322.364)">
            <path d="M0.431,48.653L1.431,48.653L1.51,-0.013L0.51,-0.013L0.431,48.653Z" style="fill:rgb(121,198,192);fill-rule:nonzero;"/>
        </g>
        <g transform="matrix(-0.998076,-0.0620047,-0.0620047,0.998076,250.174,316.846)">
            <rect x="-0.927" y="0.028" width="1.004" height="2.455" style="fill:rgb(121,198,192);"/>
        </g>
        <g transform="matrix(-0.998137,-0.0610084,-0.0610084,0.998137,251.626,292.834)">
            <rect x="-0.926" y="0.028" width="1.002" height="2.456" style="fill:rgb(121,198,192);"/>
        </g>
        <g transform="matrix(1,0,0,1,391.496,305.077)">
            <path d="M0,2.135C5.22,2.135 8.64,-0.656 8.64,-4.796L8.64,-4.886C8.64,-9.386 5.266,-11.724 0.181,-11.724L-8.382,-11.724L-8.382,2.135L0,2.135ZM-11.339,-14.682L-0.061,-14.682C7.048,-14.682 11.729,-11.229 11.729,-5.019L11.729,-5.219C11.729,1.576 6.059,5.085 -0.646,5.085L-8.382,5.092L-8.382,16.817L-11.339,16.817L-11.339,-14.682Z" style="fill:rgb(121,198,192);fill-rule:nonzero;"/>
        </g>
        <g transform="matrix(1,0,0,1,409.316,321.894)">
            <path d="M0,-31.499L22.77,-31.499L22.77,-28.542L2.957,-28.542L2.957,-17.363L20.744,-17.363L20.744,-14.406L2.957,-14.406L2.957,-2.957L22.994,-2.957L22.994,0L0,0L0,-31.499Z" style="fill:rgb(121,198,192);fill-rule:nonzero;"/>
        </g>
        <g transform="matrix(1,0,0,1,593.01,321.894)">
            <path d="M0,-31.499L22.769,-31.499L22.769,-28.542L2.957,-28.542L2.957,-17.363L20.743,-17.363L20.743,-14.406L2.957,-14.406L2.957,-2.957L22.993,-2.957L22.993,0L0,0L0,-31.499Z" style="fill:rgb(121,198,192);fill-rule:nonzero;"/>
        </g>
        <g transform="matrix(1,0,0,1,439.574,321.894)">
            <path d="M0,-31.499L2.822,-31.499L22.666,-5.754L22.666,-31.499L25.623,-31.499L25.623,0L23.297,0L2.957,-26.329L2.957,0L0,0L0,-31.499Z" style="fill:rgb(121,198,192);fill-rule:nonzero;"/>
        </g>
        <g transform="matrix(1,0,0,1,487.801,293.352)">
            <path d="M0,25.585C4.77,25.585 7.739,23.472 7.739,19.961L7.739,19.544C7.739,16.124 4.859,14.145 -0.631,14.145L-11.127,14.145L-11.127,25.585L0,25.585ZM-1.261,11.186C3.015,11.186 5.984,9.252 5.984,5.561L5.984,5.13C5.984,2.025 3.51,0 -0.99,0L-11.127,0L-11.127,11.186L-1.261,11.186ZM-14.084,-2.957L-1.176,-2.957C2.424,-2.957 5.259,-1.922 7.059,-0.167C8.364,1.184 9.085,2.848 9.085,4.873L9.085,4.963C9.085,9.058 6.563,11.173 4.089,12.253C7.824,13.378 10.839,15.537 10.839,19.858L10.839,19.947C10.839,25.348 6.295,28.542 -0.591,28.542L-14.084,28.542L-14.084,-2.957Z" style="fill:rgb(121,198,192);fill-rule:nonzero;"/>
        </g>
        <g transform="matrix(1,0,0,1,0,0.289)">
            <rect x="505.919" y="290.106" width="2.957" height="31.499" style="fill:rgb(121,198,192);"/>
        </g>
        <g transform="matrix(1,0,0,1,555.356,321.894)">
            <path d="M0,-31.499L3.093,-31.499L14.567,-14.31L26.041,-31.499L29.043,-31.499L29.043,0L26.087,0L26.087,-26.014L14.611,-9.14L14.433,-9.14L2.957,-25.969L2.957,0L0,0L0,-31.499Z" style="fill:rgb(121,198,192);fill-rule:nonzero;"/>
        </g>
        <g transform="matrix(1,0,0,1,357.321,322.339)">
            <path d="M0,-32.439C-8.958,-32.439 -16.219,-25.177 -16.219,-16.22C-16.219,-7.262 -8.958,0 0,0C8.958,0 16.219,-7.262 16.219,-16.22C16.219,-25.177 8.958,-32.439 0,-32.439M13.262,-16.22C13.262,-8.895 7.324,-2.957 0,-2.957C-7.325,-2.957 -13.262,-8.895 -13.262,-16.22C-13.262,-23.544 -7.325,-29.482 0,-29.482C7.324,-29.482 13.262,-23.544 13.262,-16.22" style="fill:rgb(121,198,192);fill-rule:nonzero;"/>
        </g>
        <g transform="matrix(1,0,0,1,532.156,322.339)">
            <path d="M0,-32.439C-8.958,-32.439 -16.219,-25.177 -16.219,-16.22C-16.219,-7.262 -8.958,0 0,0C8.958,0 16.219,-7.262 16.219,-16.22C16.219,-25.177 8.958,-32.439 0,-32.439M13.262,-16.22C13.262,-8.895 7.325,-2.957 0,-2.957C-7.324,-2.957 -13.262,-8.895 -13.262,-16.22C-13.262,-23.544 -7.324,-29.482 0,-29.482C7.325,-29.482 13.262,-23.544 13.262,-16.22" style="fill:rgb(121,198,192);fill-rule:nonzero;"/>
        </g>
    </g>
</svg>
