<?xml version="1.0" encoding="UTF-8" standalone="no"?>
<!DOCTYPE svg PUBLIC "-//W3C//DTD SVG 1.1//EN" "http://www.w3.org/Graphics/SVG/1.1/DTD/svg11.dtd">
<svg width="100%" height="100%" viewBox="0 0 518 145" version="1.1" xmlns="http://www.w3.org/2000/svg" xmlns:xlink="http://www.w3.org/1999/xlink" xml:space="preserve" xmlns:serif="http://www.serif.com/" style="fill-rule:evenodd;clip-rule:evenodd;stroke-linejoin:round;stroke-miterlimit:1.41421;">
    <g transform="matrix(0.711683,0,0,0.711683,344.699,-108.945)">
        <text x="51.367px" y="173.979px" style="font-family:'Lato-Regular', 'Lato', sans-serif;font-size:28.648px;">Bacteria, fungi</text>
    </g>
    <g transform="matrix(0.711683,0,0,0.711683,337.237,-22.7557)">
        <text x="102.561px" y="173.979px" style="font-family:'Lato-Regular', 'Lato', sans-serif;font-size:28.648px;">Viruses,</text>
        <text x="51.367px" y="202.627px" style="font-family:'Lato-Regular', 'Lato', sans-serif;font-size:28.648px;">small molecules,</text>
        <text x="58.701px" y="231.275px" style="font-family:'Lato-Regular', 'Lato', sans-serif;font-size:28.648px;">antibodies, etc.</text>
    </g>
    <g transform="matrix(0.711683,0,0,0.711683,-38.0457,-61.7221)">
        <text x="60.721px" y="173.979px" style="font-family:'Lato-Regular', 'Lato', sans-serif;font-size:28.648px;">Host</text>
        <text x="51.367px" y="202.627px" style="font-family:'Lato-Regular', 'Lato', sans-serif;font-size:28.648px;">health</text>
    </g>
    <g transform="matrix(0.711683,0,0,0.711683,156.865,-73.5829)">
        <text x="60.721px" y="173.979px" style="font-family:'Lato-Regular', 'Lato', sans-serif;font-size:28.648px;">Host</text>
        <text x="11.132px" y="202.627px" style="font-family:'Lato-Regular', 'Lato', sans-serif;font-size:28.648px;">ph<tspan x="42.415px 57.083px " y="202.627px 202.627px ">ys</tspan>iology &amp;</text>
        <text x="31.615px" y="231.275px" style="font-family:'Lato-Regular', 'Lato', sans-serif;font-size:28.648px;">immunity</text>
    </g>
    <g transform="matrix(1,0,0,0.66317,-25.2114,-55.9083)">
        <path d="M106.951,177.447L106.951,182.212L102.089,174.881L106.951,167.55L106.951,172.315L164.013,172.315L164.013,177.447L106.951,177.447Z"/>
    </g>
    <g transform="matrix(-1,1.22465e-16,-8.12149e-17,-0.66317,245.89,186.044)">
        <path d="M106.951,177.447L106.951,182.212L102.089,174.881L106.951,167.55L106.951,172.315L164.013,172.315L164.013,177.447L106.951,177.447Z"/>
    </g>
    <g transform="matrix(0.866025,-0.5,0.331585,0.574322,145.792,-8.33493)">
        <path d="M106.951,177.447L106.951,182.212L102.089,174.881L106.951,167.55L106.951,172.315L164.013,172.315L164.013,177.447L106.951,177.447Z"/>
    </g>
    <g transform="matrix(-0.866025,0.5,-0.331585,-0.574322,501.549,65.6506)">
        <path d="M106.951,177.447L106.951,182.212L102.089,174.881L106.951,167.55L106.951,172.315L164.013,172.315L164.013,177.447L106.951,177.447Z"/>
    </g>
    <g transform="matrix(0,-0.594977,0.66317,0,316.387,133.175)">
        <path d="M110.26,177.447L110.26,182.212L102.089,174.881L110.26,167.55L110.26,172.315L164.013,172.315L164.013,177.447L110.26,177.447Z"/>
    </g>
    <g transform="matrix(1.22465e-16,0.594977,-0.66317,4.8321e-17,558.339,-28.1246)">
        <path d="M110.26,177.447L110.26,182.212L102.089,174.881L110.26,167.55L110.26,172.315L164.013,172.315L164.013,177.447L110.26,177.447Z"/>
    </g>
    <g transform="matrix(0.866025,0.5,-0.331585,0.574322,266.768,-74.1663)">
        <path d="M106.951,177.447L106.951,182.212L102.089,174.881L106.951,167.55L106.951,172.315L164.013,172.315L164.013,177.447L106.951,177.447Z"/>
    </g>
    <g transform="matrix(-0.866025,-0.5,0.331585,-0.574322,380.573,270.921)">
        <path d="M106.951,177.447L106.951,182.212L102.089,174.881L106.951,167.55L106.951,172.315L164.013,172.315L164.013,177.447L106.951,177.447Z"/>
    </g>
</svg>
